<?xml version="1.0" encoding="utf-8"?>
<!-- Generator: Adobe Illustrator 24.3.0, SVG Export Plug-In . SVG Version: 6.00 Build 0)  -->
<svg version="1.1" id="Layer_1" xmlns="http://www.w3.org/2000/svg" xmlns:xlink="http://www.w3.org/1999/xlink" x="0px" y="0px"
	 viewBox="0 0 50 400" style="enable-background:new 0 0 50 400;" xml:space="preserve">
<style type="text/css">
	.st0{fill:#E94E1B;}
	.st1{fill:#E30613;}
	.st2{fill:#F9B233;}
	.st3{fill:#FFFFFF;}
	.st4{fill:#009FE3;}
</style>
<rect x="11.5" y="61.5" width="3.8" height="238.5"/>
<rect x="34.6" y="61.5" width="3.8" height="238.5"/>
<rect x="15.4" y="350" width="3.8" height="3.8"/>
<rect x="11.5" y="350" width="3.8" height="3.8"/>
<rect x="13.5" y="353.8" width="3.8" height="3.8"/>
<rect x="32.7" y="353.8" width="3.8" height="3.8"/>
<rect x="21.2" y="353.8" width="3.8" height="3.8"/>
<rect x="25" y="353.8" width="3.8" height="3.8"/>
<rect x="36.5" y="353.8" width="3.8" height="3.8"/>
<rect x="9.6" y="353.8" width="3.8" height="3.8"/>
<rect x="13.5" y="357.7" width="3.8" height="3.8"/>
<rect x="13.5" y="361.5" width="3.8" height="3.8"/>
<rect x="32.7" y="357.7" width="3.8" height="3.8"/>
<rect x="21.2" y="357.7" width="3.8" height="3.8"/>
<rect x="25" y="357.7" width="3.8" height="3.8"/>
<rect x="25" y="361.5" width="3.8" height="3.8"/>
<rect x="21.2" y="361.5" width="3.8" height="3.8"/>
<rect x="9.6" y="361.5" width="3.8" height="3.8"/>
<rect x="32.7" y="361.5" width="3.8" height="3.8"/>
<rect x="36.5" y="361.5" width="3.8" height="3.8"/>
<rect x="13.5" y="365.4" width="3.8" height="3.8"/>
<rect x="25" y="365.4" width="3.8" height="3.8"/>
<rect x="25" y="369.2" width="3.8" height="3.8"/>
<rect x="28.8" y="353.8" width="3.8" height="3.8"/>
<rect x="28.8" y="357.7" width="3.8" height="3.8"/>
<rect x="28.8" y="361.5" width="3.8" height="3.8"/>
<rect x="28.8" y="365.4" width="3.8" height="3.8"/>
<rect x="28.8" y="369.2" width="3.8" height="3.8"/>
<rect x="21.2" y="369.2" width="3.8" height="3.8"/>
<rect x="21.2" y="365.4" width="3.8" height="3.8"/>
<rect x="17.3" y="353.8" width="3.8" height="3.8"/>
<rect x="17.3" y="357.7" width="3.8" height="3.8"/>
<rect x="17.3" y="361.5" width="3.8" height="3.8"/>
<rect x="17.3" y="369.2" width="3.8" height="3.8"/>
<rect x="17.3" y="365.4" width="3.8" height="3.8"/>
<rect x="9.6" y="365.4" width="3.8" height="3.8"/>
<rect x="5.8" y="365.4" width="3.8" height="3.8"/>
<rect x="5.8" y="369.2" class="st0" width="3.8" height="3.8"/>
<rect x="40.4" y="369.2" class="st0" width="3.8" height="3.8"/>
<rect x="32.7" y="369.2" class="st0" width="3.8" height="3.8"/>
<rect x="36.5" y="373.1" class="st0" width="3.8" height="3.8"/>
<rect x="40.4" y="373.1" class="st0" width="3.8" height="3.8"/>
<rect x="9.6" y="369.2" class="st1" width="3.8" height="3.8"/>
<rect x="21.2" y="373.1" class="st1" width="3.8" height="3.8"/>
<rect x="25" y="373.1" class="st1" width="3.8" height="3.8"/>
<rect x="36.5" y="369.2" class="st1" width="3.8" height="3.8"/>
<rect x="25" y="376.9" class="st1" width="3.8" height="3.8"/>
<rect x="13.5" y="369.2" class="st0" width="3.8" height="3.8"/>
<rect x="17.3" y="373.1" class="st0" width="3.8" height="3.8"/>
<rect x="17.3" y="376.9" class="st0" width="3.8" height="3.8"/>
<rect x="21.2" y="376.9" class="st0" width="3.8" height="3.8"/>
<rect x="28.8" y="373.1" class="st0" width="3.8" height="3.8"/>
<rect x="28.8" y="376.9" class="st0" width="3.8" height="3.8"/>
<rect x="28.8" y="380.8" class="st0" width="3.8" height="3.8"/>
<rect x="25" y="380.8" class="st0" width="3.8" height="3.8"/>
<rect x="25" y="384.6" class="st0" width="3.8" height="3.8"/>
<rect x="13.5" y="373.1" class="st2" width="3.8" height="3.8"/>
<rect x="13.5" y="376.9" class="st2" width="3.8" height="3.8"/>
<rect x="17.3" y="380.8" class="st2" width="3.8" height="3.8"/>
<rect x="21.2" y="380.8" class="st0" width="3.8" height="3.8"/>
<rect x="9.6" y="380.8" class="st2" width="3.8" height="3.8"/>
<rect x="9.6" y="384.6" class="st2" width="3.8" height="3.8"/>
<rect x="21.2" y="384.6" class="st2" width="3.8" height="3.8"/>
<rect x="25" y="388.5" class="st2" width="3.8" height="3.8"/>
<rect x="25" y="392.3" class="st2" width="3.8" height="3.8"/>
<rect x="28.8" y="388.5" class="st2" width="3.8" height="3.8"/>
<rect x="25" y="396.2" class="st2" width="3.8" height="3.8"/>
<rect x="21.2" y="388.5" class="st2" width="3.8" height="3.8"/>
<rect x="28.8" y="384.6" class="st2" width="3.8" height="3.8"/>
<rect x="32.7" y="380.8" class="st2" width="3.8" height="3.8"/>
<rect x="36.5" y="380.8" class="st2" width="3.8" height="3.8"/>
<rect x="36.5" y="384.6" class="st2" width="3.8" height="3.8"/>
<rect x="44.2" y="369.2" class="st2" width="3.8" height="3.8"/>
<rect x="44.2" y="373.1" class="st2" width="3.8" height="3.8"/>
<rect x="40.4" y="376.9" class="st2" width="3.8" height="3.8"/>
<rect x="40.4" y="380.8" class="st2" width="3.8" height="3.8"/>
<rect x="36.5" y="376.9" class="st2" width="3.8" height="3.8"/>
<rect x="32.7" y="376.9" class="st2" width="3.8" height="3.8"/>
<rect x="32.7" y="373.1" class="st2" width="3.8" height="3.8"/>
<rect x="5.8" y="376.9" class="st2" width="3.8" height="3.8"/>
<rect x="5.8" y="380.8" class="st2" width="3.8" height="3.8"/>
<rect x="9.6" y="376.9" class="st2" width="3.8" height="3.8"/>
<rect x="1.9" y="373.1" class="st2" width="3.8" height="3.8"/>
<rect x="1.9" y="369.2" class="st2" width="3.8" height="3.8"/>
<rect x="9.6" y="373.1" class="st0" width="3.8" height="3.8"/>
<rect x="5.8" y="373.1" class="st0" width="3.8" height="3.8"/>
<rect x="40.4" y="365.4" width="3.8" height="3.8"/>
<rect x="32.7" y="365.4" width="3.8" height="3.8"/>
<rect x="36.5" y="365.4" width="3.8" height="3.8"/>
<rect x="36.5" y="357.7" width="3.8" height="3.8"/>
<rect x="9.6" y="357.7" width="3.8" height="3.8"/>
<rect x="23.1" y="350" width="3.8" height="3.8"/>
<rect x="30.8" y="350" width="3.8" height="3.8"/>
<rect x="34.6" y="57.7" width="3.8" height="3.8"/>
<rect x="38.5" y="300" width="3.8" height="3.8"/>
<rect x="15.4" y="300" width="3.8" height="3.8"/>
<rect x="15.4" y="303.8" width="3.8" height="3.8"/>
<rect x="15.4" y="307.7" width="3.8" height="3.8"/>
<rect x="30.8" y="296.2" width="3.8" height="3.8"/>
<rect x="30.8" y="300" width="3.8" height="3.8"/>
<rect x="30.8" y="303.8" width="3.8" height="3.8"/>
<rect x="30.8" y="307.7" width="3.8" height="3.8"/>
<rect x="15.4" y="296.2" width="3.8" height="3.8"/>
<rect x="15.4" y="315.4" width="3.8" height="3.8"/>
<rect x="15.4" y="319.2" width="3.8" height="3.8"/>
<rect x="15.4" y="323.1" width="3.8" height="3.8"/>
<rect x="15.4" y="311.5" width="3.8" height="3.8"/>
<rect x="15.4" y="346.2" width="3.8" height="3.8"/>
<rect x="19.2" y="326.9" width="3.8" height="3.8"/>
<rect x="19.2" y="330.8" width="3.8" height="3.8"/>
<rect x="19.2" y="338.5" width="3.8" height="3.8"/>
<rect x="19.2" y="342.3" width="3.8" height="3.8"/>
<rect x="19.2" y="346.2" width="3.8" height="3.8"/>
<rect x="19.2" y="334.6" width="3.8" height="3.8"/>
<rect x="30.8" y="346.2" width="3.8" height="3.8"/>
<rect x="34.6" y="342.3" width="3.8" height="3.8"/>
<rect x="34.6" y="338.5" width="3.8" height="3.8"/>
<rect x="34.6" y="334.6" width="3.8" height="3.8"/>
<rect x="11.5" y="342.3" width="3.8" height="3.8"/>
<rect x="11.5" y="338.5" width="3.8" height="3.8"/>
<rect x="11.5" y="334.6" width="3.8" height="3.8"/>
<rect x="30.8" y="330.8" width="3.8" height="3.8"/>
<rect x="15.4" y="330.8" width="3.8" height="3.8"/>
<rect x="26.9" y="326.9" width="3.8" height="3.8"/>
<rect x="26.9" y="330.8" width="3.8" height="3.8"/>
<rect x="26.9" y="338.5" width="3.8" height="3.8"/>
<rect x="26.9" y="342.3" width="3.8" height="3.8"/>
<rect x="26.9" y="346.2" width="3.8" height="3.8"/>
<rect x="26.9" y="334.6" width="3.8" height="3.8"/>
<rect x="30.8" y="315.4" width="3.8" height="3.8"/>
<rect x="30.8" y="319.2" width="3.8" height="3.8"/>
<rect x="30.8" y="323.1" width="3.8" height="3.8"/>
<rect x="30.8" y="311.5" width="3.8" height="3.8"/>
<rect x="38.5" y="303.8" width="3.8" height="3.8"/>
<rect x="38.5" y="307.7" width="3.8" height="3.8"/>
<rect x="42.3" y="311.5" width="3.8" height="3.8"/>
<rect x="42.3" y="315.4" width="3.8" height="3.8"/>
<rect x="42.3" y="319.2" width="3.8" height="3.8"/>
<rect x="46.2" y="323.1" width="3.8" height="3.8"/>
<rect x="46.2" y="338.5" width="3.8" height="3.8"/>
<rect x="46.2" y="342.3" width="3.8" height="3.8"/>
<rect x="42.3" y="346.2" width="3.8" height="3.8"/>
<rect x="38.5" y="350" width="3.8" height="3.8"/>
<rect x="7.7" y="300" transform="matrix(-1 -4.492907e-11 4.492907e-11 -1 19.2308 603.8461)" width="3.8" height="3.8"/>
<rect x="7.7" y="303.8" transform="matrix(-1 -4.492907e-11 4.492907e-11 -1 19.2308 611.5385)" width="3.8" height="3.8"/>
<rect x="7.7" y="307.7" transform="matrix(-1 -4.469282e-11 4.469282e-11 -1 19.2308 619.2308)" width="3.8" height="3.8"/>
<rect x="3.8" y="311.5" transform="matrix(-1 -4.492907e-11 4.492907e-11 -1 11.5385 626.9231)" width="3.8" height="3.8"/>
<rect x="3.8" y="315.4" transform="matrix(-1 -4.492907e-11 4.492907e-11 -1 11.5385 634.6154)" width="3.8" height="3.8"/>
<rect x="3.8" y="319.2" transform="matrix(-1 -4.492907e-11 4.492907e-11 -1 11.5385 642.3077)" width="3.8" height="3.8"/>
<rect x="0" y="323.1" transform="matrix(-1 -4.492907e-11 4.492907e-11 -1 3.8462 650)" width="3.8" height="3.8"/>
<rect x="46.2" y="326.9" width="3.8" height="3.8"/>
<rect x="0" y="326.9" transform="matrix(-1 -4.492907e-11 4.492907e-11 -1 3.8462 657.6923)" width="3.8" height="3.8"/>
<rect x="0" y="338.5" transform="matrix(-1 -4.492907e-11 4.492907e-11 -1 3.8462 680.7692)" width="3.8" height="3.8"/>
<rect x="0" y="342.3" transform="matrix(-1 -4.492907e-11 4.492907e-11 -1 3.8462 688.4615)" width="3.8" height="3.8"/>
<rect x="46.2" y="330.8" width="3.8" height="3.8"/>
<rect x="46.2" y="334.6" width="3.8" height="3.8"/>
<rect x="0" y="330.8" transform="matrix(-1 -4.492907e-11 4.492907e-11 -1 3.8462 665.3846)" width="3.8" height="3.8"/>
<rect x="0" y="334.6" transform="matrix(-1 -4.492907e-11 4.492907e-11 -1 3.8462 673.0769)" width="3.8" height="3.8"/>
<rect x="3.8" y="346.2" transform="matrix(-1 -4.492907e-11 4.492907e-11 -1 11.5385 696.1539)" width="3.8" height="3.8"/>
<rect x="7.7" y="350" transform="matrix(-1 -4.492907e-11 4.492907e-11 -1 19.2308 703.8461)" width="3.8" height="3.8"/>
<rect x="34.6" y="350" width="3.8" height="3.8"/>
<rect x="38.5" y="53.8" width="3.8" height="3.8"/>
<rect x="38.5" y="50" width="3.8" height="3.8"/>
<rect x="38.5" y="46.2" width="3.8" height="3.8"/>
<rect x="38.5" y="34.6" width="3.8" height="3.8"/>
<rect x="38.5" y="30.8" width="3.8" height="3.8"/>
<rect x="34.6" y="26.9" width="3.8" height="3.8"/>
<rect x="34.6" y="23.1" width="3.8" height="3.8"/>
<rect x="34.6" y="19.2" width="3.8" height="3.8"/>
<rect x="34.6" y="15.4" width="3.8" height="3.8"/>
<rect x="30.8" y="11.5" width="3.8" height="3.8"/>
<rect x="30.8" y="7.7" width="3.8" height="3.8"/>
<rect x="26.9" y="3.8" width="3.8" height="3.8"/>
<rect x="26.9" y="350" width="3.8" height="3.8"/>
<rect x="19.2" y="350" width="3.8" height="3.8"/>
<rect x="11.5" y="57.7" transform="matrix(-1 -4.492907e-11 4.492907e-11 -1 26.9231 119.2308)" width="3.8" height="3.8"/>
<rect x="7.7" y="53.8" transform="matrix(-1 -4.492907e-11 4.492907e-11 -1 19.2308 111.5385)" width="3.8" height="3.8"/>
<rect x="7.7" y="50" transform="matrix(-1 -4.492907e-11 4.492907e-11 -1 19.2308 103.8462)" width="3.8" height="3.8"/>
<rect x="7.7" y="46.2" transform="matrix(-1 -4.492907e-11 4.492907e-11 -1 19.2308 96.1538)" width="3.8" height="3.8"/>
<rect x="38.5" y="38.5" width="3.8" height="3.8"/>
<rect x="7.7" y="38.5" transform="matrix(-1 -4.492907e-11 4.492907e-11 -1 19.2308 80.7692)" width="3.8" height="3.8"/>
<rect x="38.5" y="42.3" width="3.8" height="3.8"/>
<rect x="7.7" y="42.3" transform="matrix(-1 -4.492907e-11 4.492907e-11 -1 19.2308 88.4615)" width="3.8" height="3.8"/>
<rect x="7.7" y="34.6" transform="matrix(-1 -4.492907e-11 4.492907e-11 -1 19.2308 73.0769)" width="3.8" height="3.8"/>
<rect x="7.7" y="30.8" transform="matrix(-1 -4.492907e-11 4.492907e-11 -1 19.2308 65.3846)" width="3.8" height="3.8"/>
<rect x="11.5" y="26.9" transform="matrix(-1 -4.492907e-11 4.492907e-11 -1 26.9231 57.6923)" width="3.8" height="3.8"/>
<rect x="11.5" y="23.1" transform="matrix(-1 -4.492907e-11 4.492907e-11 -1 26.9231 50)" width="3.8" height="3.8"/>
<rect x="11.5" y="19.2" transform="matrix(-1 -4.492907e-11 4.492907e-11 -1 26.9231 42.3077)" width="3.8" height="3.8"/>
<rect x="11.5" y="15.4" transform="matrix(-1 -4.492907e-11 4.492907e-11 -1 26.9231 34.6154)" width="3.8" height="3.8"/>
<rect x="19.2" y="11.5" transform="matrix(-1 -4.492907e-11 4.492907e-11 -1 42.3077 26.9231)" width="3.8" height="3.8"/>
<rect x="23.1" y="11.5" transform="matrix(-1 -4.492907e-11 4.492907e-11 -1 50 26.9231)" width="3.8" height="3.8"/>
<rect x="26.9" y="11.5" transform="matrix(-1 -4.492907e-11 4.492907e-11 -1 57.6923 26.9231)" width="3.8" height="3.8"/>
<rect x="30.8" y="15.4" transform="matrix(-1 -4.492907e-11 4.492907e-11 -1 65.3846 34.6154)" width="3.8" height="3.8"/>
<rect x="15.4" y="15.4" transform="matrix(-1 -4.492907e-11 4.492907e-11 -1 34.6154 34.6154)" width="3.8" height="3.8"/>
<rect x="19.2" y="61.5" transform="matrix(-1 -4.492907e-11 4.492907e-11 -1 42.3077 126.9231)" width="3.8" height="3.8"/>
<rect x="23.1" y="61.5" transform="matrix(-1 -4.492907e-11 4.492907e-11 -1 50 126.9231)" width="3.8" height="3.8"/>
<rect x="26.9" y="61.5" transform="matrix(-1 -4.492907e-11 4.492907e-11 -1 57.6923 126.9231)" width="3.8" height="3.8"/>
<rect x="30.8" y="61.5" transform="matrix(-1 -4.492907e-11 4.492907e-11 -1 65.3846 126.9231)" width="3.8" height="3.8"/>
<rect x="15.4" y="61.5" transform="matrix(-1 -4.492907e-11 4.492907e-11 -1 34.6154 126.9231)" width="3.8" height="3.8"/>
<rect x="19.2" y="111.5" transform="matrix(-1 -4.492907e-11 4.492907e-11 -1 42.3077 226.9231)" width="3.8" height="3.8"/>
<rect x="23.1" y="111.5" transform="matrix(-1 -4.492907e-11 4.492907e-11 -1 50 226.9231)" width="3.8" height="3.8"/>
<rect x="26.9" y="111.5" transform="matrix(-1 -4.492907e-11 4.492907e-11 -1 57.6923 226.9231)" width="3.8" height="3.8"/>
<rect x="30.8" y="111.5" transform="matrix(-1 -4.492907e-11 4.492907e-11 -1 65.3846 226.9231)" width="3.8" height="3.8"/>
<rect x="15.4" y="111.5" transform="matrix(-1 -4.492907e-11 4.492907e-11 -1 34.6154 226.9231)" width="3.8" height="3.8"/>
<rect x="19.2" y="138.5" transform="matrix(-1 -4.492907e-11 4.492907e-11 -1 42.3077 280.7692)" width="3.8" height="3.8"/>
<rect x="23.1" y="138.5" transform="matrix(-1 -4.492907e-11 4.492907e-11 -1 50 280.7692)" width="3.8" height="3.8"/>
<rect x="26.9" y="138.5" transform="matrix(-1 -4.492907e-11 4.492907e-11 -1 57.6923 280.7692)" width="3.8" height="3.8"/>
<rect x="30.8" y="138.5" transform="matrix(-1 -4.492907e-11 4.492907e-11 -1 65.3846 280.7692)" width="3.8" height="3.8"/>
<rect x="15.4" y="138.5" transform="matrix(-1 -4.492907e-11 4.492907e-11 -1 34.6154 280.7692)" width="3.8" height="3.8"/>
<rect x="15.4" y="11.5" transform="matrix(-1 -4.492907e-11 4.492907e-11 -1 34.6154 26.9231)" width="3.8" height="3.8"/>
<rect x="15.4" y="7.7" transform="matrix(-1 -4.469282e-11 4.469282e-11 -1 34.6154 19.2308)" width="3.8" height="3.8"/>
<rect x="19.2" y="3.8" transform="matrix(-1 -4.492907e-11 4.492907e-11 -1 42.3077 11.5385)" width="3.8" height="3.8"/>
<rect x="23.1" y="0" transform="matrix(-1 -4.492907e-11 4.492907e-11 -1 50 3.8462)" width="3.8" height="3.8"/>
<polygon class="st3" points="11.5,30.8 11.5,57.7 15.4,57.7 15.4,61.5 34.6,61.5 34.6,57.7 38.5,57.7 38.5,30.8 "/>
<rect x="15.4" y="65.4" class="st3" width="19.2" height="46.2"/>
<rect x="15.4" y="115.4" class="st3" width="19.2" height="23.1"/>
<polygon class="st3" points="34.6,296.2 30.8,296.2 30.8,326.9 26.9,326.9 26.9,350 23.1,350 23.1,326.9 19.2,326.9 19.2,296.2 
	15.4,296.2 15.4,144.2 34.6,144.2 "/>
<rect x="15.4" y="142.3" class="st3" width="19.2" height="46.2"/>
<rect x="15.4" y="334.6" class="st3" width="3.8" height="11.5"/>
<rect x="30.8" y="334.6" class="st3" width="3.8" height="11.5"/>
<polygon class="st3" points="42.3,323.1 42.3,311.5 38.5,311.5 38.5,300 34.6,300 34.6,326.9 30.8,326.9 30.8,330.8 34.6,330.8 
	34.6,334.6 38.5,334.6 38.5,346.2 34.6,346.2 34.6,350 38.5,350 40.4,350 42.3,350 42.3,346.2 46.2,346.2 46.2,330.8 46.2,326.9 
	46.2,323.1 "/>
<polygon class="st3" points="7.7,323.1 7.7,311.5 11.5,311.5 11.5,300 15.4,300 15.4,326.9 19.2,326.9 19.2,330.8 15.4,330.8 
	15.4,334.6 11.5,334.6 11.5,346.2 15.4,346.2 15.4,350 11.5,350 9.6,350 7.7,350 7.7,346.2 3.8,346.2 3.8,330.8 3.8,326.9 
	3.8,323.1 "/>
<polygon class="st3" points="19.2,11.5 19.2,7.7 23.1,7.7 23.1,3.8 26.9,3.8 26.9,7.7 30.8,7.7 30.8,11.5 "/>
<rect x="19.2" y="26.9" transform="matrix(-1 -4.492907e-11 4.492907e-11 -1 42.3077 57.6923)" width="3.8" height="3.8"/>
<rect x="23.1" y="26.9" transform="matrix(-1 -4.492907e-11 4.492907e-11 -1 50 57.6923)" width="3.8" height="3.8"/>
<rect x="26.9" y="26.9" transform="matrix(-1 -4.492907e-11 4.492907e-11 -1 57.6923 57.6923)" width="3.8" height="3.8"/>
<rect x="30.8" y="26.9" transform="matrix(-1 -4.492907e-11 4.492907e-11 -1 65.3846 57.6923)" width="3.8" height="3.8"/>
<rect x="15.4" y="26.9" transform="matrix(-1 -4.492907e-11 4.492907e-11 -1 34.6154 57.6923)" width="3.8" height="3.8"/>
<polygon class="st3" points="19.2,15.4 19.2,19.2 15.4,19.2 15.4,26.9 34.6,26.9 34.6,19.2 30.8,19.2 30.8,15.4 "/>
<rect x="21.2" y="86.5" class="st4" width="3.8" height="3.8"/>
<rect x="25" y="86.5" class="st4" width="3.8" height="3.8"/>
</svg>
