<?xml version="1.0" encoding="utf-8"?>
<!-- Generator: Adobe Illustrator 24.3.0, SVG Export Plug-In . SVG Version: 6.00 Build 0)  -->
<svg version="1.1" id="Layer_1" xmlns="http://www.w3.org/2000/svg" xmlns:xlink="http://www.w3.org/1999/xlink" x="0px" y="0px"
	 viewBox="0 0 111.5 400" style="enable-background:new 0 0 111.5 400;" xml:space="preserve">
<style type="text/css">
	.st0{fill:#E94E1B;}
	.st1{fill:#E30613;}
	.st2{fill:#F9B233;}
	.st3{fill:#FFFFFF;}
</style>
<rect x="55.8" y="369.2" width="3.8" height="3.8"/>
<rect x="59.6" y="369.2" width="3.8" height="3.8"/>
<rect x="52" y="369.2" width="3.8" height="3.8"/>
<rect x="48.1" y="369.2" width="3.8" height="3.8"/>
<rect x="36.6" y="369.2" class="st0" width="3.8" height="3.8"/>
<rect x="71.2" y="369.2" class="st0" width="3.8" height="3.8"/>
<rect x="63.5" y="369.2" class="st0" width="3.8" height="3.8"/>
<rect x="67.3" y="373.1" class="st0" width="3.8" height="3.8"/>
<rect x="71.2" y="373.1" class="st0" width="3.8" height="3.8"/>
<rect x="40.4" y="369.2" class="st1" width="3.8" height="3.8"/>
<rect x="52" y="373.1" class="st1" width="3.8" height="3.8"/>
<rect x="55.8" y="373.1" class="st1" width="3.8" height="3.8"/>
<rect x="67.3" y="369.2" class="st1" width="3.8" height="3.8"/>
<rect x="55.8" y="376.9" class="st1" width="3.8" height="3.8"/>
<rect x="44.3" y="369.2" class="st0" width="3.8" height="3.8"/>
<rect x="48.1" y="373.1" class="st0" width="3.8" height="3.8"/>
<rect x="48.1" y="376.9" class="st0" width="3.8" height="3.8"/>
<rect x="52" y="376.9" class="st0" width="3.8" height="3.8"/>
<rect x="59.6" y="373.1" class="st0" width="3.8" height="3.8"/>
<rect x="59.6" y="376.9" class="st0" width="3.8" height="3.8"/>
<rect x="59.6" y="380.8" class="st0" width="3.8" height="3.8"/>
<rect x="55.8" y="380.8" class="st0" width="3.8" height="3.8"/>
<rect x="55.8" y="384.6" class="st0" width="3.8" height="3.8"/>
<rect x="44.3" y="373.1" class="st2" width="3.8" height="3.8"/>
<rect x="44.3" y="376.9" class="st2" width="3.8" height="3.8"/>
<rect x="48.1" y="380.8" class="st2" width="3.8" height="3.8"/>
<rect x="52" y="380.8" class="st0" width="3.8" height="3.8"/>
<rect x="40.4" y="380.8" class="st2" width="3.8" height="3.8"/>
<rect x="40.4" y="384.6" class="st2" width="3.8" height="3.8"/>
<rect x="52" y="384.6" class="st2" width="3.8" height="3.8"/>
<rect x="55.8" y="388.5" class="st2" width="3.8" height="3.8"/>
<rect x="55.8" y="392.3" class="st2" width="3.8" height="3.8"/>
<rect x="59.6" y="388.5" class="st2" width="3.8" height="3.8"/>
<rect x="55.8" y="396.2" class="st2" width="3.8" height="3.8"/>
<rect x="52" y="388.5" class="st2" width="3.8" height="3.8"/>
<rect x="59.6" y="384.6" class="st2" width="3.8" height="3.8"/>
<rect x="63.5" y="380.8" class="st2" width="3.8" height="3.8"/>
<rect x="67.3" y="380.8" class="st2" width="3.8" height="3.8"/>
<rect x="67.3" y="384.6" class="st2" width="3.8" height="3.8"/>
<rect x="75" y="369.2" class="st2" width="3.8" height="3.8"/>
<rect x="75" y="373.1" class="st2" width="3.8" height="3.8"/>
<rect x="71.2" y="376.9" class="st2" width="3.8" height="3.8"/>
<rect x="71.2" y="380.8" class="st2" width="3.8" height="3.8"/>
<rect x="67.3" y="376.9" class="st2" width="3.8" height="3.8"/>
<rect x="63.5" y="376.9" class="st2" width="3.8" height="3.8"/>
<rect x="63.5" y="373.1" class="st2" width="3.8" height="3.8"/>
<rect x="36.6" y="376.9" class="st2" width="3.8" height="3.8"/>
<rect x="36.6" y="380.8" class="st2" width="3.8" height="3.8"/>
<rect x="40.4" y="376.9" class="st2" width="3.8" height="3.8"/>
<rect x="32.7" y="373.1" class="st2" width="3.8" height="3.8"/>
<rect x="32.7" y="369.2" class="st2" width="3.8" height="3.8"/>
<rect x="40.4" y="373.1" class="st0" width="3.8" height="3.8"/>
<rect x="36.6" y="373.1" class="st0" width="3.8" height="3.8"/>
<rect x="28.9" y="369.2" width="3.8" height="3.8"/>
<rect x="32.7" y="369.2" width="3.8" height="3.8"/>
<rect x="25.1" y="369.2" width="3.8" height="3.8"/>
<rect x="21.2" y="369.2" width="3.8" height="3.8"/>
<rect x="9.7" y="369.2" class="st0" width="3.8" height="3.8"/>
<rect x="44.3" y="369.2" class="st0" width="3.8" height="3.8"/>
<rect x="36.6" y="369.2" class="st0" width="3.8" height="3.8"/>
<rect x="40.4" y="373.1" class="st0" width="3.8" height="3.8"/>
<rect x="44.3" y="373.1" class="st0" width="3.8" height="3.8"/>
<rect x="13.5" y="369.2" class="st1" width="3.8" height="3.8"/>
<rect x="25.1" y="373.1" class="st1" width="3.8" height="3.8"/>
<rect x="28.9" y="373.1" class="st1" width="3.8" height="3.8"/>
<rect x="40.4" y="369.2" class="st1" width="3.8" height="3.8"/>
<rect x="28.9" y="376.9" class="st1" width="3.8" height="3.8"/>
<rect x="17.4" y="369.2" class="st0" width="3.8" height="3.8"/>
<rect x="21.2" y="373.1" class="st0" width="3.8" height="3.8"/>
<rect x="21.2" y="376.9" class="st0" width="3.8" height="3.8"/>
<rect x="25.1" y="376.9" class="st0" width="3.8" height="3.8"/>
<rect x="32.7" y="373.1" class="st0" width="3.8" height="3.8"/>
<rect x="32.7" y="376.9" class="st0" width="3.8" height="3.8"/>
<rect x="32.7" y="380.8" class="st0" width="3.8" height="3.8"/>
<rect x="28.9" y="380.8" class="st0" width="3.8" height="3.8"/>
<rect x="28.9" y="384.6" class="st0" width="3.8" height="3.8"/>
<rect x="17.4" y="373.1" class="st2" width="3.8" height="3.8"/>
<rect x="17.4" y="376.9" class="st2" width="3.8" height="3.8"/>
<rect x="21.2" y="380.8" class="st2" width="3.8" height="3.8"/>
<rect x="25.1" y="380.8" class="st0" width="3.8" height="3.8"/>
<rect x="13.5" y="380.8" class="st2" width="3.8" height="3.8"/>
<rect x="13.5" y="384.6" class="st2" width="3.8" height="3.8"/>
<rect x="25.1" y="384.6" class="st2" width="3.8" height="3.8"/>
<rect x="28.9" y="388.5" class="st2" width="3.8" height="3.8"/>
<rect x="28.9" y="392.3" class="st2" width="3.8" height="3.8"/>
<rect x="32.7" y="388.5" class="st2" width="3.8" height="3.8"/>
<rect x="28.9" y="396.2" class="st2" width="3.8" height="3.8"/>
<rect x="25.1" y="388.5" class="st2" width="3.8" height="3.8"/>
<rect x="32.7" y="384.6" class="st2" width="3.8" height="3.8"/>
<rect x="36.6" y="380.8" class="st2" width="3.8" height="3.8"/>
<rect x="40.4" y="380.8" class="st2" width="3.8" height="3.8"/>
<rect x="40.4" y="384.6" class="st2" width="3.8" height="3.8"/>
<rect x="48.1" y="369.2" class="st2" width="3.8" height="3.8"/>
<rect x="48.1" y="373.1" class="st2" width="3.8" height="3.8"/>
<rect x="44.3" y="376.9" class="st2" width="3.8" height="3.8"/>
<rect x="44.3" y="380.8" class="st2" width="3.8" height="3.8"/>
<rect x="40.4" y="376.9" class="st2" width="3.8" height="3.8"/>
<rect x="36.6" y="376.9" class="st2" width="3.8" height="3.8"/>
<rect x="36.6" y="373.1" class="st2" width="3.8" height="3.8"/>
<rect x="9.7" y="376.9" class="st2" width="3.8" height="3.8"/>
<rect x="9.7" y="380.8" class="st2" width="3.8" height="3.8"/>
<rect x="13.5" y="376.9" class="st2" width="3.8" height="3.8"/>
<rect x="5.8" y="373.1" class="st2" width="3.8" height="3.8"/>
<rect x="5.8" y="369.2" class="st2" width="3.8" height="3.8"/>
<rect x="13.5" y="373.1" class="st0" width="3.8" height="3.8"/>
<rect x="9.7" y="373.1" class="st0" width="3.8" height="3.8"/>
<rect x="82.7" y="369.2" width="3.8" height="3.8"/>
<rect x="86.5" y="369.2" width="3.8" height="3.8"/>
<rect x="78.9" y="369.2" width="3.8" height="3.8"/>
<rect x="75" y="369.2" width="3.8" height="3.8"/>
<rect x="63.5" y="369.2" class="st0" width="3.8" height="3.8"/>
<rect x="98.1" y="369.2" class="st0" width="3.8" height="3.8"/>
<rect x="90.4" y="369.2" class="st0" width="3.8" height="3.8"/>
<rect x="94.2" y="373.1" class="st0" width="3.8" height="3.8"/>
<rect x="98.1" y="373.1" class="st0" width="3.8" height="3.8"/>
<rect x="67.3" y="369.2" class="st1" width="3.8" height="3.8"/>
<rect x="78.9" y="373.1" class="st1" width="3.8" height="3.8"/>
<rect x="82.7" y="373.1" class="st1" width="3.8" height="3.8"/>
<rect x="94.2" y="369.2" class="st1" width="3.8" height="3.8"/>
<rect x="82.7" y="376.9" class="st1" width="3.8" height="3.8"/>
<rect x="71.2" y="369.2" class="st0" width="3.8" height="3.8"/>
<rect x="75" y="373.1" class="st0" width="3.8" height="3.8"/>
<rect x="75" y="376.9" class="st0" width="3.8" height="3.8"/>
<rect x="78.9" y="376.9" class="st0" width="3.8" height="3.8"/>
<rect x="86.5" y="373.1" class="st0" width="3.8" height="3.8"/>
<rect x="86.5" y="376.9" class="st0" width="3.8" height="3.8"/>
<rect x="86.5" y="380.8" class="st0" width="3.8" height="3.8"/>
<rect x="82.7" y="380.8" class="st0" width="3.8" height="3.8"/>
<rect x="82.7" y="384.6" class="st0" width="3.8" height="3.8"/>
<rect x="71.2" y="373.1" class="st2" width="3.8" height="3.8"/>
<rect x="71.2" y="376.9" class="st2" width="3.8" height="3.8"/>
<rect x="75" y="380.8" class="st2" width="3.8" height="3.8"/>
<rect x="78.9" y="380.8" class="st0" width="3.8" height="3.8"/>
<rect x="67.3" y="380.8" class="st2" width="3.8" height="3.8"/>
<rect x="67.3" y="384.6" class="st2" width="3.8" height="3.8"/>
<rect x="78.9" y="384.6" class="st2" width="3.8" height="3.8"/>
<rect x="82.7" y="388.5" class="st2" width="3.8" height="3.8"/>
<rect x="82.7" y="392.3" class="st2" width="3.8" height="3.8"/>
<rect x="86.5" y="388.5" class="st2" width="3.8" height="3.8"/>
<rect x="82.7" y="396.2" class="st2" width="3.8" height="3.8"/>
<rect x="78.9" y="388.5" class="st2" width="3.8" height="3.8"/>
<rect x="86.5" y="384.6" class="st2" width="3.8" height="3.8"/>
<rect x="90.4" y="380.8" class="st2" width="3.8" height="3.8"/>
<rect x="94.2" y="380.8" class="st2" width="3.8" height="3.8"/>
<rect x="94.2" y="384.6" class="st2" width="3.8" height="3.8"/>
<rect x="101.9" y="369.2" class="st2" width="3.8" height="3.8"/>
<rect x="101.9" y="373.1" class="st2" width="3.8" height="3.8"/>
<rect x="98.1" y="376.9" class="st2" width="3.8" height="3.8"/>
<rect x="98.1" y="380.8" class="st2" width="3.8" height="3.8"/>
<rect x="94.2" y="376.9" class="st2" width="3.8" height="3.8"/>
<rect x="90.4" y="376.9" class="st2" width="3.8" height="3.8"/>
<rect x="90.4" y="373.1" class="st2" width="3.8" height="3.8"/>
<rect x="63.5" y="376.9" class="st2" width="3.8" height="3.8"/>
<rect x="63.5" y="380.8" class="st2" width="3.8" height="3.8"/>
<rect x="67.3" y="376.9" class="st2" width="3.8" height="3.8"/>
<rect x="59.6" y="373.1" class="st2" width="3.8" height="3.8"/>
<rect x="59.6" y="369.2" class="st2" width="3.8" height="3.8"/>
<rect x="67.3" y="373.1" class="st0" width="3.8" height="3.8"/>
<rect x="63.5" y="373.1" class="st0" width="3.8" height="3.8"/>
<rect x="73.1" y="171.1" width="3.8" height="128.8"/>
<rect x="96.1" y="171.1" width="3.8" height="128.8"/>
<rect x="76.9" y="349.9" width="3.8" height="3.8"/>
<rect x="73.1" y="349.9" width="3.8" height="3.8"/>
<rect x="75" y="353.8" width="3.8" height="3.8"/>
<rect x="94.2" y="353.8" width="3.8" height="3.8"/>
<rect x="82.7" y="353.8" width="3.8" height="3.8"/>
<rect x="86.5" y="353.8" width="3.8" height="3.8"/>
<rect x="98.1" y="353.8" width="3.8" height="3.8"/>
<rect x="71.1" y="353.8" width="3.8" height="3.8"/>
<rect x="75" y="357.6" width="3.8" height="3.8"/>
<rect x="75" y="361.5" width="3.8" height="3.8"/>
<rect x="94.2" y="357.6" width="3.8" height="3.8"/>
<rect x="82.7" y="357.6" width="3.8" height="3.8"/>
<rect x="86.5" y="357.6" width="3.8" height="3.8"/>
<rect x="86.5" y="361.5" width="3.8" height="3.8"/>
<rect x="82.7" y="361.5" width="3.8" height="3.8"/>
<rect x="71.1" y="361.5" width="3.8" height="3.8"/>
<rect x="94.2" y="361.5" width="3.8" height="3.8"/>
<rect x="98.1" y="361.5" width="3.8" height="3.8"/>
<rect x="75" y="365.3" width="3.8" height="3.8"/>
<rect x="86.5" y="365.3" width="3.8" height="3.8"/>
<rect x="86.5" y="369.2" width="3.8" height="3.8"/>
<rect x="90.4" y="353.8" width="3.8" height="3.8"/>
<rect x="90.4" y="357.6" width="3.8" height="3.8"/>
<rect x="90.4" y="361.5" width="3.8" height="3.8"/>
<rect x="90.4" y="365.3" width="3.8" height="3.8"/>
<rect x="90.4" y="369.2" width="3.8" height="3.8"/>
<rect x="82.7" y="369.2" width="3.8" height="3.8"/>
<rect x="82.7" y="365.3" width="3.8" height="3.8"/>
<rect x="78.8" y="353.8" width="3.8" height="3.8"/>
<rect x="78.8" y="357.6" width="3.8" height="3.8"/>
<rect x="78.8" y="361.5" width="3.8" height="3.8"/>
<rect x="78.8" y="369.2" width="3.8" height="3.8"/>
<rect x="78.8" y="365.3" width="3.8" height="3.8"/>
<rect x="71.1" y="365.3" width="3.8" height="3.8"/>
<rect x="67.3" y="365.3" width="3.8" height="3.8"/>
<rect x="101.9" y="365.3" width="3.8" height="3.8"/>
<rect x="94.2" y="365.3" width="3.8" height="3.8"/>
<rect x="98.1" y="365.3" width="3.8" height="3.8"/>
<rect x="98.1" y="357.6" width="3.8" height="3.8"/>
<rect x="71.1" y="357.6" width="3.8" height="3.8"/>
<rect x="84.6" y="349.9" width="3.8" height="3.8"/>
<rect x="92.3" y="349.9" width="3.8" height="3.8"/>
<rect x="100" y="299.9" width="3.8" height="3.8"/>
<rect x="76.9" y="299.9" width="3.8" height="3.8"/>
<rect x="76.9" y="303.8" width="3.8" height="3.8"/>
<rect x="76.9" y="307.6" width="3.8" height="3.8"/>
<rect x="92.3" y="296.1" width="3.8" height="3.8"/>
<rect x="92.3" y="299.9" width="3.8" height="3.8"/>
<rect x="92.3" y="303.8" width="3.8" height="3.8"/>
<rect x="92.3" y="307.6" width="3.8" height="3.8"/>
<rect x="76.9" y="296.1" width="3.8" height="3.8"/>
<rect x="76.9" y="315.3" width="3.8" height="3.8"/>
<rect x="76.9" y="319.2" width="3.8" height="3.8"/>
<rect x="76.9" y="323" width="3.8" height="3.8"/>
<rect x="76.9" y="311.5" width="3.8" height="3.8"/>
<rect x="76.9" y="346.1" width="3.8" height="3.8"/>
<rect x="80.8" y="326.9" width="3.8" height="3.8"/>
<rect x="80.8" y="330.7" width="3.8" height="3.8"/>
<rect x="80.8" y="338.4" width="3.8" height="3.8"/>
<rect x="80.8" y="342.2" width="3.8" height="3.8"/>
<rect x="80.8" y="346.1" width="3.8" height="3.8"/>
<rect x="80.8" y="334.5" width="3.8" height="3.8"/>
<rect x="92.3" y="346.1" width="3.8" height="3.8"/>
<rect x="96.1" y="342.2" width="3.8" height="3.8"/>
<rect x="96.1" y="338.4" width="3.8" height="3.8"/>
<rect x="96.1" y="334.5" width="3.8" height="3.8"/>
<rect x="73.1" y="342.2" width="3.8" height="3.8"/>
<rect x="73.1" y="338.4" width="3.8" height="3.8"/>
<rect x="73.1" y="334.5" width="3.8" height="3.8"/>
<rect x="92.3" y="330.7" width="3.8" height="3.8"/>
<rect x="76.9" y="330.7" width="3.8" height="3.8"/>
<rect x="88.4" y="326.9" width="3.8" height="3.8"/>
<rect x="88.4" y="330.7" width="3.8" height="3.8"/>
<rect x="88.4" y="338.4" width="3.8" height="3.8"/>
<rect x="88.4" y="342.2" width="3.8" height="3.8"/>
<rect x="88.4" y="346.1" width="3.8" height="3.8"/>
<rect x="88.4" y="334.5" width="3.8" height="3.8"/>
<rect x="92.3" y="315.3" width="3.8" height="3.8"/>
<rect x="92.3" y="319.2" width="3.8" height="3.8"/>
<rect x="92.3" y="323" width="3.8" height="3.8"/>
<rect x="92.3" y="311.5" width="3.8" height="3.8"/>
<rect x="100" y="303.8" width="3.8" height="3.8"/>
<rect x="100" y="307.6" width="3.8" height="3.8"/>
<rect x="103.8" y="311.5" width="3.8" height="3.8"/>
<rect x="103.8" y="315.3" width="3.8" height="3.8"/>
<rect x="103.8" y="319.2" width="3.8" height="3.8"/>
<rect x="107.7" y="323" width="3.8" height="3.8"/>
<rect x="107.7" y="338.4" width="3.8" height="3.8"/>
<rect x="107.7" y="342.2" width="3.8" height="3.8"/>
<rect x="103.8" y="346.1" width="3.8" height="3.8"/>
<rect x="100" y="349.9" width="3.8" height="3.8"/>
<rect x="69.2" y="299.9" transform="matrix(-1 -4.493840e-11 4.493840e-11 -1 142.2783 603.7216)" width="3.8" height="3.8"/>
<rect x="69.2" y="303.8" transform="matrix(-1 -4.493840e-11 4.493840e-11 -1 142.2783 611.4123)" width="3.8" height="3.8"/>
<rect x="69.2" y="307.6" transform="matrix(-1 -4.493840e-11 4.493840e-11 -1 142.2783 619.103)" width="3.8" height="3.8"/>
<rect x="65.4" y="311.5" transform="matrix(-1 -4.493840e-11 4.493840e-11 -1 134.5876 626.7938)" width="3.8" height="3.8"/>
<rect x="65.4" y="315.3" transform="matrix(-1 -4.493840e-11 4.493840e-11 -1 134.5876 634.4845)" width="3.8" height="3.8"/>
<rect x="65.4" y="319.2" transform="matrix(-1 -4.493840e-11 4.493840e-11 -1 134.5876 642.1752)" width="3.8" height="3.8"/>
<rect x="61.5" y="323" transform="matrix(-1 -4.493840e-11 4.493840e-11 -1 126.8969 649.8659)" width="3.8" height="3.8"/>
<rect x="107.7" y="326.9" width="3.8" height="3.8"/>
<rect x="61.5" y="326.9" transform="matrix(-1 -4.493840e-11 4.493840e-11 -1 126.8969 657.5566)" width="3.8" height="3.8"/>
<rect x="61.5" y="338.4" transform="matrix(-1 -4.493840e-11 4.493840e-11 -1 126.8969 680.6288)" width="3.8" height="3.8"/>
<rect x="61.5" y="342.2" transform="matrix(-1 -4.493840e-11 4.493840e-11 -1 126.8969 688.3195)" width="3.8" height="3.8"/>
<rect x="107.7" y="330.7" width="3.8" height="3.8"/>
<rect x="107.7" y="334.5" width="3.8" height="3.8"/>
<rect x="61.5" y="330.7" transform="matrix(-1 -4.493840e-11 4.493840e-11 -1 126.8969 665.2474)" width="3.8" height="3.8"/>
<rect x="61.5" y="334.5" transform="matrix(-1 -4.493840e-11 4.493840e-11 -1 126.8969 672.938)" width="3.8" height="3.8"/>
<rect x="65.4" y="346.1" transform="matrix(-1 -4.446544e-11 4.446544e-11 -1 134.5876 696.0103)" width="3.8" height="3.8"/>
<rect x="69.2" y="349.9" transform="matrix(-1 -4.493840e-11 4.493840e-11 -1 142.2783 703.701)" width="3.8" height="3.8"/>
<rect x="96.1" y="349.9" width="3.8" height="3.8"/>
<rect x="96.1" y="167.3" width="3.8" height="3.8"/>
<rect x="96.1" y="163.4" width="3.8" height="3.8"/>
<rect x="96.1" y="159.6" width="3.8" height="3.8"/>
<rect x="96.1" y="155.7" width="3.8" height="3.8"/>
<rect x="92.3" y="151.9" width="3.8" height="3.8"/>
<rect x="92.3" y="148" width="3.8" height="3.8"/>
<rect x="88.4" y="144.2" width="3.8" height="3.8"/>
<rect x="88.4" y="349.9" width="3.8" height="3.8"/>
<rect x="80.8" y="349.9" width="3.8" height="3.8"/>
<rect x="73.1" y="167.3" transform="matrix(-1 -4.493840e-11 4.493840e-11 -1 149.9691 338.3917)" width="3.8" height="3.8"/>
<rect x="73.1" y="163.4" transform="matrix(-1 -4.493840e-11 4.493840e-11 -1 149.9691 330.701)" width="3.8" height="3.8"/>
<rect x="73.1" y="159.6" transform="matrix(-1 -4.493840e-11 4.493840e-11 -1 149.9691 323.0103)" width="3.8" height="3.8"/>
<rect x="73.1" y="155.7" transform="matrix(-1 -4.493840e-11 4.493840e-11 -1 149.9691 315.3195)" width="3.8" height="3.8"/>
<rect x="80.8" y="151.9" transform="matrix(-1 -4.493840e-11 4.493840e-11 -1 165.3505 307.6288)" width="3.8" height="3.8"/>
<rect x="84.6" y="151.9" transform="matrix(-1 -4.493840e-11 4.493840e-11 -1 173.0412 307.6288)" width="3.8" height="3.8"/>
<rect x="88.4" y="151.9" transform="matrix(-1 -4.493840e-11 4.493840e-11 -1 180.7319 307.6288)" width="3.8" height="3.8"/>
<rect x="92.3" y="155.7" transform="matrix(-1 -4.493840e-11 4.493840e-11 -1 188.4227 315.3195)" width="3.8" height="3.8"/>
<rect x="76.9" y="155.7" transform="matrix(-1 -4.493840e-11 4.493840e-11 -1 157.6598 315.3195)" width="3.8" height="3.8"/>
<rect x="80.8" y="209.6" transform="matrix(-1 -4.493840e-11 4.493840e-11 -1 165.3505 422.9897)" width="3.8" height="3.8"/>
<rect x="84.6" y="209.6" transform="matrix(-1 -4.493840e-11 4.493840e-11 -1 173.0412 422.9897)" width="3.8" height="3.8"/>
<rect x="88.4" y="209.6" transform="matrix(-1 -4.493840e-11 4.493840e-11 -1 180.7319 422.9897)" width="3.8" height="3.8"/>
<rect x="92.3" y="209.6" transform="matrix(-1 -4.493840e-11 4.493840e-11 -1 188.4227 422.9897)" width="3.8" height="3.8"/>
<rect x="76.9" y="209.6" transform="matrix(-1 -4.493840e-11 4.493840e-11 -1 157.6598 422.9897)" width="3.8" height="3.8"/>
<rect x="76.9" y="151.9" transform="matrix(-1 -4.470170e-11 4.470170e-11 -1 157.6598 307.6288)" width="3.8" height="3.8"/>
<rect x="76.9" y="148" transform="matrix(-1 -4.493840e-11 4.493840e-11 -1 157.6598 299.9381)" width="3.8" height="3.8"/>
<rect x="80.8" y="144.2" transform="matrix(-1 -4.493840e-11 4.493840e-11 -1 165.3505 292.2474)" width="3.8" height="3.8"/>
<rect x="84.6" y="140.4" transform="matrix(-1 -4.493840e-11 4.493840e-11 -1 173.0412 284.5567)" width="3.8" height="3.8"/>
<polygon class="st3" points="96.1,296.1 92.3,296.1 92.3,326.9 88.4,326.9 88.4,349.9 84.6,349.9 84.6,326.9 80.8,326.9 80.8,296.1 
	76.9,296.1 76.9,213.4 96.1,213.4 "/>
<rect x="76.9" y="334.5" class="st3" width="3.8" height="11.5"/>
<rect x="92.3" y="334.5" class="st3" width="3.8" height="11.5"/>
<polygon class="st3" points="103.8,323 103.8,311.5 100,311.5 100,299.9 96.1,299.9 96.1,326.9 92.3,326.9 92.3,330.7 96.1,330.7 
	96.1,334.5 100,334.5 100,346.1 96.1,346.1 96.1,349.9 100,349.9 101.9,349.9 103.8,349.9 103.8,346.1 107.7,346.1 107.7,330.7 
	107.7,326.9 107.7,323 "/>
<polygon class="st3" points="69.2,323 69.2,311.5 73.1,311.5 73.1,299.9 76.9,299.9 76.9,326.9 80.8,326.9 80.8,330.7 76.9,330.7 
	76.9,334.5 73.1,334.5 73.1,346.1 76.9,346.1 76.9,349.9 73.1,349.9 71.1,349.9 69.2,349.9 69.2,346.1 65.4,346.1 65.4,330.7 
	65.4,326.9 65.4,323 "/>
<polygon class="st3" points="80.8,151.9 80.8,148 84.6,148 84.6,144.2 88.4,144.2 88.4,148 92.3,148 92.3,151.9 "/>
<rect x="80.8" y="167.3" transform="matrix(-1 -4.493840e-11 4.493840e-11 -1 165.3505 338.3917)" width="3.8" height="3.8"/>
<rect x="84.6" y="167.3" transform="matrix(-1 -4.493840e-11 4.493840e-11 -1 173.0412 338.3917)" width="3.8" height="3.8"/>
<rect x="88.4" y="167.3" transform="matrix(-1 -4.493840e-11 4.493840e-11 -1 180.7319 338.3917)" width="3.8" height="3.8"/>
<rect x="92.3" y="167.3" transform="matrix(-1 -4.493840e-11 4.493840e-11 -1 188.4227 338.3917)" width="3.8" height="3.8"/>
<rect x="76.9" y="167.3" transform="matrix(-1 -4.493840e-11 4.493840e-11 -1 157.6598 338.3917)" width="3.8" height="3.8"/>
<polyline class="st3" points="80.8,155.7 80.8,159.6 76.9,159.6 76.9,167.3 96.1,167.3 96.1,159.6 92.3,159.6 92.3,155.7 "/>
<rect x="76.9" y="171.1" class="st3" width="19.2" height="38.5"/>
<rect x="11.5" y="171.1" width="3.8" height="128.8"/>
<rect x="34.6" y="171.1" width="3.8" height="128.8"/>
<rect x="15.4" y="349.9" width="3.8" height="3.8"/>
<rect x="11.5" y="349.9" width="3.8" height="3.8"/>
<rect x="13.5" y="353.8" width="3.8" height="3.8"/>
<rect x="32.7" y="353.8" width="3.8" height="3.8"/>
<rect x="21.1" y="353.8" width="3.8" height="3.8"/>
<rect x="25" y="353.8" width="3.8" height="3.8"/>
<rect x="36.5" y="353.8" width="3.8" height="3.8"/>
<rect x="9.6" y="353.8" width="3.8" height="3.8"/>
<rect x="13.5" y="357.6" width="3.8" height="3.8"/>
<rect x="13.5" y="361.5" width="3.8" height="3.8"/>
<rect x="32.7" y="357.6" width="3.8" height="3.8"/>
<rect x="21.1" y="357.6" width="3.8" height="3.8"/>
<rect x="25" y="357.6" width="3.8" height="3.8"/>
<rect x="25" y="361.5" width="3.8" height="3.8"/>
<rect x="21.1" y="361.5" width="3.8" height="3.8"/>
<rect x="9.6" y="361.5" width="3.8" height="3.8"/>
<rect x="32.7" y="361.5" width="3.8" height="3.8"/>
<rect x="36.5" y="361.5" width="3.8" height="3.8"/>
<rect x="13.5" y="365.3" width="3.8" height="3.8"/>
<rect x="25" y="365.3" width="3.8" height="3.8"/>
<rect x="25" y="369.2" width="3.8" height="3.8"/>
<rect x="28.8" y="353.8" width="3.8" height="3.8"/>
<rect x="28.8" y="357.6" width="3.8" height="3.8"/>
<rect x="28.8" y="361.5" width="3.8" height="3.8"/>
<rect x="28.8" y="365.3" width="3.8" height="3.8"/>
<rect x="28.8" y="369.2" width="3.8" height="3.8"/>
<rect x="21.1" y="369.2" width="3.8" height="3.8"/>
<rect x="21.1" y="365.3" width="3.8" height="3.8"/>
<rect x="17.3" y="353.8" width="3.8" height="3.8"/>
<rect x="17.3" y="357.6" width="3.8" height="3.8"/>
<rect x="17.3" y="361.5" width="3.8" height="3.8"/>
<rect x="17.3" y="369.2" width="3.8" height="3.8"/>
<rect x="17.3" y="365.3" width="3.8" height="3.8"/>
<rect x="9.6" y="365.3" width="3.8" height="3.8"/>
<rect x="5.8" y="365.3" width="3.8" height="3.8"/>
<rect x="40.4" y="365.3" width="3.8" height="3.8"/>
<rect x="32.7" y="365.3" width="3.8" height="3.8"/>
<rect x="36.5" y="365.3" width="3.8" height="3.8"/>
<rect x="36.5" y="357.6" width="3.8" height="3.8"/>
<rect x="9.6" y="357.6" width="3.8" height="3.8"/>
<rect x="23.1" y="349.9" width="3.8" height="3.8"/>
<rect x="30.8" y="349.9" width="3.8" height="3.8"/>
<rect x="38.5" y="299.9" width="3.8" height="3.8"/>
<rect x="15.4" y="299.9" width="3.8" height="3.8"/>
<rect x="15.4" y="303.8" width="3.8" height="3.8"/>
<rect x="15.4" y="307.6" width="3.8" height="3.8"/>
<rect x="30.8" y="296.1" width="3.8" height="3.8"/>
<rect x="30.8" y="299.9" width="3.8" height="3.8"/>
<rect x="30.8" y="303.8" width="3.8" height="3.8"/>
<rect x="30.8" y="307.6" width="3.8" height="3.8"/>
<rect x="15.4" y="296.1" width="3.8" height="3.8"/>
<rect x="15.4" y="315.3" width="3.8" height="3.8"/>
<rect x="15.4" y="319.2" width="3.8" height="3.8"/>
<rect x="15.4" y="323" width="3.8" height="3.8"/>
<rect x="15.4" y="311.5" width="3.8" height="3.8"/>
<rect x="15.4" y="346.1" width="3.8" height="3.8"/>
<rect x="19.2" y="326.9" width="3.8" height="3.8"/>
<rect x="19.2" y="330.7" width="3.8" height="3.8"/>
<rect x="19.2" y="338.4" width="3.8" height="3.8"/>
<rect x="19.2" y="342.2" width="3.8" height="3.8"/>
<rect x="19.2" y="346.1" width="3.8" height="3.8"/>
<rect x="19.2" y="334.5" width="3.8" height="3.8"/>
<rect x="30.8" y="346.1" width="3.8" height="3.8"/>
<rect x="34.6" y="342.2" width="3.8" height="3.8"/>
<rect x="34.6" y="338.4" width="3.8" height="3.8"/>
<rect x="34.6" y="334.5" width="3.8" height="3.8"/>
<rect x="11.5" y="342.2" width="3.8" height="3.8"/>
<rect x="11.5" y="338.4" width="3.8" height="3.8"/>
<rect x="11.5" y="334.5" width="3.8" height="3.8"/>
<rect x="30.8" y="330.7" width="3.8" height="3.8"/>
<rect x="15.4" y="330.7" width="3.8" height="3.8"/>
<rect x="26.9" y="326.9" width="3.8" height="3.8"/>
<rect x="26.9" y="330.7" width="3.8" height="3.8"/>
<rect x="26.9" y="338.4" width="3.8" height="3.8"/>
<rect x="26.9" y="342.2" width="3.8" height="3.8"/>
<rect x="26.9" y="346.1" width="3.8" height="3.8"/>
<rect x="26.9" y="334.5" width="3.8" height="3.8"/>
<rect x="30.8" y="315.3" width="3.8" height="3.8"/>
<rect x="30.8" y="319.2" width="3.8" height="3.8"/>
<rect x="30.8" y="323" width="3.8" height="3.8"/>
<rect x="30.8" y="311.5" width="3.8" height="3.8"/>
<rect x="38.5" y="303.8" width="3.8" height="3.8"/>
<rect x="38.5" y="307.6" width="3.8" height="3.8"/>
<rect x="42.3" y="311.5" width="3.8" height="3.8"/>
<rect x="42.3" y="315.3" width="3.8" height="3.8"/>
<rect x="42.3" y="319.2" width="3.8" height="3.8"/>
<rect x="46.1" y="323" width="3.8" height="3.8"/>
<rect x="46.1" y="338.4" width="3.8" height="3.8"/>
<rect x="46.1" y="342.2" width="3.8" height="3.8"/>
<rect x="42.3" y="346.1" width="3.8" height="3.8"/>
<rect x="38.5" y="349.9" width="3.8" height="3.8"/>
<rect x="7.7" y="299.9" transform="matrix(-1 -4.493840e-11 4.493840e-11 -1 19.2268 603.7216)" width="3.8" height="3.8"/>
<rect x="7.7" y="303.8" transform="matrix(-1 -4.493840e-11 4.493840e-11 -1 19.2268 611.4123)" width="3.8" height="3.8"/>
<rect x="7.7" y="307.6" transform="matrix(-1 -4.493840e-11 4.493840e-11 -1 19.2268 619.103)" width="3.8" height="3.8"/>
<rect x="3.8" y="311.5" transform="matrix(-1 -4.493840e-11 4.493840e-11 -1 11.5361 626.7938)" width="3.8" height="3.8"/>
<rect x="3.8" y="315.3" transform="matrix(-1 -4.493840e-11 4.493840e-11 -1 11.5361 634.4845)" width="3.8" height="3.8"/>
<rect x="3.8" y="319.2" transform="matrix(-1 -4.493840e-11 4.493840e-11 -1 11.5361 642.1752)" width="3.8" height="3.8"/>
<rect x="0" y="323" transform="matrix(-1 -4.493840e-11 4.493840e-11 -1 3.8454 649.8659)" width="3.8" height="3.8"/>
<rect x="46.1" y="326.9" width="3.8" height="3.8"/>
<rect x="0" y="326.9" transform="matrix(-1 -4.493840e-11 4.493840e-11 -1 3.8454 657.5566)" width="3.8" height="3.8"/>
<rect x="0" y="338.4" transform="matrix(-1 -4.493840e-11 4.493840e-11 -1 3.8454 680.6288)" width="3.8" height="3.8"/>
<rect x="0" y="342.2" transform="matrix(-1 -4.493840e-11 4.493840e-11 -1 3.8454 688.3195)" width="3.8" height="3.8"/>
<rect x="46.1" y="330.7" width="3.8" height="3.8"/>
<rect x="46.1" y="334.5" width="3.8" height="3.8"/>
<rect x="0" y="330.7" transform="matrix(-1 -4.493840e-11 4.493840e-11 -1 3.8454 665.2474)" width="3.8" height="3.8"/>
<rect x="0" y="334.5" transform="matrix(-1 -4.493840e-11 4.493840e-11 -1 3.8454 672.938)" width="3.8" height="3.8"/>
<rect x="3.8" y="346.1" transform="matrix(-1 -4.446544e-11 4.446544e-11 -1 11.5361 696.0103)" width="3.8" height="3.8"/>
<rect x="7.7" y="349.9" transform="matrix(-1 -4.493840e-11 4.493840e-11 -1 19.2268 703.701)" width="3.8" height="3.8"/>
<rect x="34.6" y="349.9" width="3.8" height="3.8"/>
<rect x="34.6" y="167.3" width="3.8" height="3.8"/>
<rect x="34.6" y="163.4" width="3.8" height="3.8"/>
<rect x="34.6" y="159.6" width="3.8" height="3.8"/>
<rect x="34.6" y="155.7" width="3.8" height="3.8"/>
<rect x="30.8" y="151.9" width="3.8" height="3.8"/>
<rect x="30.8" y="148" width="3.8" height="3.8"/>
<rect x="26.9" y="144.2" width="3.8" height="3.8"/>
<rect x="26.9" y="349.9" width="3.8" height="3.8"/>
<rect x="19.2" y="349.9" width="3.8" height="3.8"/>
<rect x="11.5" y="167.3" transform="matrix(-1 -4.493840e-11 4.493840e-11 -1 26.9175 338.3917)" width="3.8" height="3.8"/>
<rect x="11.5" y="163.4" transform="matrix(-1 -4.493840e-11 4.493840e-11 -1 26.9175 330.701)" width="3.8" height="3.8"/>
<rect x="11.5" y="159.6" transform="matrix(-1 -4.493840e-11 4.493840e-11 -1 26.9175 323.0103)" width="3.8" height="3.8"/>
<rect x="11.5" y="155.7" transform="matrix(-1 -4.493840e-11 4.493840e-11 -1 26.9175 315.3195)" width="3.8" height="3.8"/>
<rect x="19.2" y="151.9" transform="matrix(-1 -4.493840e-11 4.493840e-11 -1 42.299 307.6288)" width="3.8" height="3.8"/>
<rect x="23.1" y="151.9" transform="matrix(-1 -4.493840e-11 4.493840e-11 -1 49.9897 307.6288)" width="3.8" height="3.8"/>
<rect x="26.9" y="151.9" transform="matrix(-1 -4.493840e-11 4.493840e-11 -1 57.6804 307.6288)" width="3.8" height="3.8"/>
<rect x="30.8" y="155.7" transform="matrix(-1 -4.493840e-11 4.493840e-11 -1 65.3711 315.3195)" width="3.8" height="3.8"/>
<rect x="15.4" y="155.7" transform="matrix(-1 -4.493840e-11 4.493840e-11 -1 34.6082 315.3195)" width="3.8" height="3.8"/>
<rect x="19.2" y="209.6" transform="matrix(-1 -4.493840e-11 4.493840e-11 -1 42.299 422.9897)" width="3.8" height="3.8"/>
<rect x="23.1" y="209.6" transform="matrix(-1 -4.493840e-11 4.493840e-11 -1 49.9897 422.9897)" width="3.8" height="3.8"/>
<rect x="26.9" y="209.6" transform="matrix(-1 -4.493840e-11 4.493840e-11 -1 57.6804 422.9897)" width="3.8" height="3.8"/>
<rect x="30.8" y="209.6" transform="matrix(-1 -4.493840e-11 4.493840e-11 -1 65.3711 422.9897)" width="3.8" height="3.8"/>
<rect x="15.4" y="209.6" transform="matrix(-1 -4.493840e-11 4.493840e-11 -1 34.6082 422.9897)" width="3.8" height="3.8"/>
<rect x="15.4" y="151.9" transform="matrix(-1 -4.470170e-11 4.470170e-11 -1 34.6082 307.6288)" width="3.8" height="3.8"/>
<rect x="15.4" y="148" transform="matrix(-1 -4.493840e-11 4.493840e-11 -1 34.6082 299.9381)" width="3.8" height="3.8"/>
<rect x="19.2" y="144.2" transform="matrix(-1 -4.493840e-11 4.493840e-11 -1 42.299 292.2474)" width="3.8" height="3.8"/>
<rect x="23.1" y="140.4" transform="matrix(-1 -4.493840e-11 4.493840e-11 -1 49.9897 284.5567)" width="3.8" height="3.8"/>
<polygon class="st3" points="34.6,296.1 30.8,296.1 30.8,326.9 26.9,326.9 26.9,349.9 23.1,349.9 23.1,326.9 19.2,326.9 19.2,296.1 
	15.4,296.1 15.4,213.4 34.6,213.4 "/>
<rect x="15.4" y="334.5" class="st3" width="3.8" height="11.5"/>
<rect x="30.8" y="334.5" class="st3" width="3.8" height="11.5"/>
<polygon class="st3" points="42.3,323 42.3,311.5 38.5,311.5 38.5,299.9 34.6,299.9 34.6,326.9 30.8,326.9 30.8,330.7 34.6,330.7 
	34.6,334.5 38.5,334.5 38.5,346.1 34.6,346.1 34.6,349.9 38.5,349.9 40.4,349.9 42.3,349.9 42.3,346.1 46.1,346.1 46.1,330.7 
	46.1,326.9 46.1,323 "/>
<polygon class="st3" points="7.7,323 7.7,311.5 11.5,311.5 11.5,299.9 15.4,299.9 15.4,326.9 19.2,326.9 19.2,330.7 15.4,330.7 
	15.4,334.5 11.5,334.5 11.5,346.1 15.4,346.1 15.4,349.9 11.5,349.9 9.6,349.9 7.7,349.9 7.7,346.1 3.8,346.1 3.8,330.7 3.8,326.9 
	3.8,323 "/>
<polygon class="st3" points="19.2,151.9 19.2,148 23.1,148 23.1,144.2 26.9,144.2 26.9,148 30.8,148 30.8,151.9 "/>
<rect x="19.2" y="167.3" transform="matrix(-1 -4.493840e-11 4.493840e-11 -1 42.299 338.3917)" width="3.8" height="3.8"/>
<rect x="23.1" y="167.3" transform="matrix(-1 -4.493840e-11 4.493840e-11 -1 49.9897 338.3917)" width="3.8" height="3.8"/>
<rect x="26.9" y="167.3" transform="matrix(-1 -4.493840e-11 4.493840e-11 -1 57.6804 338.3917)" width="3.8" height="3.8"/>
<rect x="30.8" y="167.3" transform="matrix(-1 -4.493840e-11 4.493840e-11 -1 65.3711 338.3917)" width="3.8" height="3.8"/>
<rect x="15.4" y="167.3" transform="matrix(-1 -4.493840e-11 4.493840e-11 -1 34.6082 338.3917)" width="3.8" height="3.8"/>
<polyline class="st3" points="19.2,155.7 19.2,159.6 15.4,159.6 15.4,167.3 34.6,167.3 34.6,159.6 30.8,159.6 30.8,155.7 "/>
<rect x="15.4" y="171.1" class="st3" width="19.2" height="38.5"/>
<rect x="42.3" y="61.5" width="3.8" height="238.4"/>
<rect x="65.4" y="61.5" width="3.8" height="238.4"/>
<rect x="46.1" y="349.9" width="3.8" height="3.8"/>
<rect x="42.3" y="349.9" width="3.8" height="3.8"/>
<rect x="44.2" y="353.8" width="3.8" height="3.8"/>
<rect x="63.4" y="353.8" width="3.8" height="3.8"/>
<rect x="51.9" y="353.8" width="3.8" height="3.8"/>
<rect x="55.8" y="353.8" width="3.8" height="3.8"/>
<rect x="67.3" y="353.8" width="3.8" height="3.8"/>
<rect x="40.4" y="353.8" width="3.8" height="3.8"/>
<rect x="44.2" y="357.6" width="3.8" height="3.8"/>
<rect x="44.2" y="361.5" width="3.8" height="3.8"/>
<rect x="63.4" y="357.6" width="3.8" height="3.8"/>
<rect x="51.9" y="357.6" width="3.8" height="3.8"/>
<rect x="55.8" y="357.6" width="3.8" height="3.8"/>
<rect x="55.8" y="361.5" width="3.8" height="3.8"/>
<rect x="51.9" y="361.5" width="3.8" height="3.8"/>
<rect x="40.4" y="361.5" width="3.8" height="3.8"/>
<rect x="63.4" y="361.5" width="3.8" height="3.8"/>
<rect x="67.3" y="361.5" width="3.8" height="3.8"/>
<rect x="44.2" y="365.3" width="3.8" height="3.8"/>
<rect x="55.8" y="365.3" width="3.8" height="3.8"/>
<rect x="55.8" y="369.2" width="3.8" height="3.8"/>
<rect x="59.6" y="353.8" width="3.8" height="3.8"/>
<rect x="59.6" y="357.6" width="3.8" height="3.8"/>
<rect x="59.6" y="361.5" width="3.8" height="3.8"/>
<rect x="59.6" y="365.3" width="3.8" height="3.8"/>
<rect x="59.6" y="369.2" width="3.8" height="3.8"/>
<rect x="51.9" y="369.2" width="3.8" height="3.8"/>
<rect x="51.9" y="365.3" width="3.8" height="3.8"/>
<rect x="48.1" y="353.8" width="3.8" height="3.8"/>
<rect x="48.1" y="357.6" width="3.8" height="3.8"/>
<rect x="48.1" y="361.5" width="3.8" height="3.8"/>
<rect x="48.1" y="369.2" width="3.8" height="3.8"/>
<rect x="48.1" y="365.3" width="3.8" height="3.8"/>
<rect x="40.4" y="365.3" width="3.8" height="3.8"/>
<rect x="36.5" y="365.3" width="3.8" height="3.8"/>
<rect x="71.1" y="365.3" width="3.8" height="3.8"/>
<rect x="63.4" y="365.3" width="3.8" height="3.8"/>
<rect x="67.3" y="365.3" width="3.8" height="3.8"/>
<rect x="67.3" y="357.6" width="3.8" height="3.8"/>
<rect x="40.4" y="357.6" width="3.8" height="3.8"/>
<rect x="53.8" y="349.9" width="3.8" height="3.8"/>
<rect x="61.5" y="349.9" width="3.8" height="3.8"/>
<rect x="65.4" y="57.7" width="3.8" height="3.8"/>
<rect x="69.2" y="299.9" width="3.8" height="3.8"/>
<rect x="46.1" y="299.9" width="3.8" height="3.8"/>
<rect x="46.1" y="303.8" width="3.8" height="3.8"/>
<rect x="46.1" y="307.6" width="3.8" height="3.8"/>
<rect x="61.5" y="296.1" width="3.8" height="3.8"/>
<rect x="61.5" y="299.9" width="3.8" height="3.8"/>
<rect x="61.5" y="303.8" width="3.8" height="3.8"/>
<rect x="61.5" y="307.6" width="3.8" height="3.8"/>
<rect x="46.1" y="296.1" width="3.8" height="3.8"/>
<rect x="46.1" y="315.3" width="3.8" height="3.8"/>
<rect x="46.1" y="319.2" width="3.8" height="3.8"/>
<rect x="46.1" y="323" width="3.8" height="3.8"/>
<rect x="46.1" y="311.5" width="3.8" height="3.8"/>
<rect x="46.1" y="346.1" width="3.8" height="3.8"/>
<rect x="50" y="326.9" width="3.8" height="3.8"/>
<rect x="50" y="330.7" width="3.8" height="3.8"/>
<rect x="50" y="338.4" width="3.8" height="3.8"/>
<rect x="50" y="342.2" width="3.8" height="3.8"/>
<rect x="50" y="346.1" width="3.8" height="3.8"/>
<rect x="50" y="334.5" width="3.8" height="3.8"/>
<rect x="61.5" y="346.1" width="3.8" height="3.8"/>
<rect x="65.4" y="342.2" width="3.8" height="3.8"/>
<rect x="65.4" y="338.4" width="3.8" height="3.8"/>
<rect x="65.4" y="334.5" width="3.8" height="3.8"/>
<rect x="42.3" y="342.2" width="3.8" height="3.8"/>
<rect x="42.3" y="338.4" width="3.8" height="3.8"/>
<rect x="42.3" y="334.5" width="3.8" height="3.8"/>
<rect x="61.5" y="330.7" width="3.8" height="3.8"/>
<rect x="46.1" y="330.7" width="3.8" height="3.8"/>
<rect x="57.7" y="326.9" width="3.8" height="3.8"/>
<rect x="57.7" y="330.7" width="3.8" height="3.8"/>
<rect x="57.7" y="338.4" width="3.8" height="3.8"/>
<rect x="57.7" y="342.2" width="3.8" height="3.8"/>
<rect x="57.7" y="346.1" width="3.8" height="3.8"/>
<rect x="57.7" y="334.5" width="3.8" height="3.8"/>
<rect x="61.5" y="315.3" width="3.8" height="3.8"/>
<rect x="61.5" y="319.2" width="3.8" height="3.8"/>
<rect x="61.5" y="323" width="3.8" height="3.8"/>
<rect x="61.5" y="311.5" width="3.8" height="3.8"/>
<rect x="69.2" y="303.8" width="3.8" height="3.8"/>
<rect x="69.2" y="307.6" width="3.8" height="3.8"/>
<rect x="73.1" y="311.5" width="3.8" height="3.8"/>
<rect x="73.1" y="315.3" width="3.8" height="3.8"/>
<rect x="73.1" y="319.2" width="3.8" height="3.8"/>
<rect x="76.9" y="323" width="3.8" height="3.8"/>
<rect x="76.9" y="338.4" width="3.8" height="3.8"/>
<rect x="76.9" y="342.2" width="3.8" height="3.8"/>
<rect x="73.1" y="346.1" width="3.8" height="3.8"/>
<rect x="69.2" y="349.9" width="3.8" height="3.8"/>
<rect x="38.5" y="299.9" transform="matrix(-1 -4.493840e-11 4.493840e-11 -1 80.7526 603.7216)" width="3.8" height="3.8"/>
<rect x="38.5" y="303.8" transform="matrix(-1 -4.493840e-11 4.493840e-11 -1 80.7526 611.4123)" width="3.8" height="3.8"/>
<rect x="38.5" y="307.6" transform="matrix(-1 -4.493840e-11 4.493840e-11 -1 80.7526 619.103)" width="3.8" height="3.8"/>
<rect x="34.6" y="311.5" transform="matrix(-1 -4.493840e-11 4.493840e-11 -1 73.0619 626.7938)" width="3.8" height="3.8"/>
<rect x="34.6" y="315.3" transform="matrix(-1 -4.493840e-11 4.493840e-11 -1 73.0619 634.4845)" width="3.8" height="3.8"/>
<rect x="34.6" y="319.2" transform="matrix(-1 -4.493840e-11 4.493840e-11 -1 73.0619 642.1752)" width="3.8" height="3.8"/>
<rect x="30.8" y="323" transform="matrix(-1 -4.493840e-11 4.493840e-11 -1 65.3711 649.8659)" width="3.8" height="3.8"/>
<rect x="76.9" y="326.9" width="3.8" height="3.8"/>
<rect x="30.8" y="326.9" transform="matrix(-1 -4.493840e-11 4.493840e-11 -1 65.3711 657.5566)" width="3.8" height="3.8"/>
<rect x="30.8" y="338.4" transform="matrix(-1 -4.493840e-11 4.493840e-11 -1 65.3711 680.6288)" width="3.8" height="3.8"/>
<rect x="30.8" y="342.2" transform="matrix(-1 -4.493840e-11 4.493840e-11 -1 65.3711 688.3195)" width="3.8" height="3.8"/>
<rect x="76.9" y="330.7" width="3.8" height="3.8"/>
<rect x="76.9" y="334.5" width="3.8" height="3.8"/>
<rect x="30.8" y="330.7" transform="matrix(-1 -4.493840e-11 4.493840e-11 -1 65.3711 665.2474)" width="3.8" height="3.8"/>
<rect x="30.8" y="334.5" transform="matrix(-1 -4.493840e-11 4.493840e-11 -1 65.3711 672.938)" width="3.8" height="3.8"/>
<rect x="34.6" y="346.1" transform="matrix(-1 -4.446544e-11 4.446544e-11 -1 73.0619 696.0103)" width="3.8" height="3.8"/>
<rect x="38.5" y="349.9" transform="matrix(-1 -4.493840e-11 4.493840e-11 -1 80.7526 703.701)" width="3.8" height="3.8"/>
<rect x="65.4" y="349.9" width="3.8" height="3.8"/>
<rect x="69.2" y="53.8" width="3.8" height="3.8"/>
<rect x="69.2" y="50" width="3.8" height="3.8"/>
<rect x="69.2" y="46.1" width="3.8" height="3.8"/>
<rect x="69.2" y="34.6" width="3.8" height="3.8"/>
<rect x="69.2" y="30.8" width="3.8" height="3.8"/>
<rect x="65.4" y="26.9" width="3.8" height="3.8"/>
<rect x="65.4" y="23.1" width="3.8" height="3.8"/>
<rect x="65.4" y="19.2" width="3.8" height="3.8"/>
<rect x="65.4" y="15.4" width="3.8" height="3.8"/>
<rect x="61.5" y="11.5" width="3.8" height="3.8"/>
<rect x="61.5" y="7.7" width="3.8" height="3.8"/>
<rect x="57.7" y="3.8" width="3.8" height="3.8"/>
<rect x="57.7" y="349.9" width="3.8" height="3.8"/>
<rect x="50" y="349.9" width="3.8" height="3.8"/>
<rect x="42.3" y="57.7" transform="matrix(-1 -4.493840e-11 4.493840e-11 -1 88.4433 119.2062)" width="3.8" height="3.8"/>
<rect x="38.5" y="53.8" transform="matrix(-1 -4.493840e-11 4.493840e-11 -1 80.7526 111.5154)" width="3.8" height="3.8"/>
<rect x="38.5" y="50" transform="matrix(-1 -4.493840e-11 4.493840e-11 -1 80.7526 103.8247)" width="3.8" height="3.8"/>
<rect x="38.5" y="46.1" transform="matrix(-1 -4.493840e-11 4.493840e-11 -1 80.7526 96.134)" width="3.8" height="3.8"/>
<rect x="69.2" y="38.5" width="3.8" height="3.8"/>
<rect x="38.5" y="38.5" transform="matrix(-1 -4.493840e-11 4.493840e-11 -1 80.7526 80.7526)" width="3.8" height="3.8"/>
<rect x="69.2" y="42.3" width="3.8" height="3.8"/>
<rect x="38.5" y="42.3" transform="matrix(-1 -4.493840e-11 4.493840e-11 -1 80.7526 88.4433)" width="3.8" height="3.8"/>
<rect x="38.5" y="34.6" transform="matrix(-1 -4.493840e-11 4.493840e-11 -1 80.7526 73.0619)" width="3.8" height="3.8"/>
<rect x="38.5" y="30.8" transform="matrix(-1 -4.493840e-11 4.493840e-11 -1 80.7526 65.3711)" width="3.8" height="3.8"/>
<rect x="42.3" y="26.9" transform="matrix(-1 -4.493840e-11 4.493840e-11 -1 88.4433 57.6804)" width="3.8" height="3.8"/>
<rect x="42.3" y="23.1" transform="matrix(-1 -4.493840e-11 4.493840e-11 -1 88.4433 49.9897)" width="3.8" height="3.8"/>
<rect x="42.3" y="19.2" transform="matrix(-1 -4.493840e-11 4.493840e-11 -1 88.4433 42.299)" width="3.8" height="3.8"/>
<rect x="42.3" y="15.4" transform="matrix(-1 -4.493840e-11 4.493840e-11 -1 88.4433 34.6082)" width="3.8" height="3.8"/>
<rect x="50" y="11.5" transform="matrix(-1 -4.493840e-11 4.493840e-11 -1 103.8247 26.9175)" width="3.8" height="3.8"/>
<rect x="53.8" y="11.5" transform="matrix(-1 -4.493840e-11 4.493840e-11 -1 111.5154 26.9175)" width="3.8" height="3.8"/>
<rect x="57.7" y="11.5" transform="matrix(-1 -4.493840e-11 4.493840e-11 -1 119.2062 26.9175)" width="3.8" height="3.8"/>
<rect x="61.5" y="15.4" transform="matrix(-1 -4.493840e-11 4.493840e-11 -1 126.8969 34.6082)" width="3.8" height="3.8"/>
<rect x="46.1" y="15.4" transform="matrix(-1 -4.470170e-11 4.470170e-11 -1 96.134 34.6082)" width="3.8" height="3.8"/>
<rect x="50" y="61.5" transform="matrix(-1 -4.493840e-11 4.493840e-11 -1 103.8247 126.8969)" width="3.8" height="3.8"/>
<rect x="53.8" y="61.5" transform="matrix(-1 -4.493840e-11 4.493840e-11 -1 111.5154 126.8969)" width="3.8" height="3.8"/>
<rect x="57.7" y="61.5" transform="matrix(-1 -4.493840e-11 4.493840e-11 -1 119.2062 126.8969)" width="3.8" height="3.8"/>
<rect x="61.5" y="61.5" transform="matrix(-1 -4.493840e-11 4.493840e-11 -1 126.8969 126.8969)" width="3.8" height="3.8"/>
<rect x="46.1" y="61.5" transform="matrix(-1 -4.493840e-11 4.493840e-11 -1 96.134 126.8969)" width="3.8" height="3.8"/>
<rect x="50" y="111.5" transform="matrix(-1 -4.493840e-11 4.493840e-11 -1 103.8247 226.8763)" width="3.8" height="3.8"/>
<rect x="53.8" y="111.5" transform="matrix(-1 -4.493840e-11 4.493840e-11 -1 111.5154 226.8763)" width="3.8" height="3.8"/>
<rect x="57.7" y="111.5" transform="matrix(-1 -4.493840e-11 4.493840e-11 -1 119.2062 226.8763)" width="3.8" height="3.8"/>
<rect x="61.5" y="111.5" transform="matrix(-1 -4.493840e-11 4.493840e-11 -1 126.8969 226.8763)" width="3.8" height="3.8"/>
<rect x="46.1" y="111.5" transform="matrix(-1 -4.493840e-11 4.493840e-11 -1 96.134 226.8763)" width="3.8" height="3.8"/>
<rect x="50" y="138.4" transform="matrix(-1 -4.493840e-11 4.493840e-11 -1 103.8247 280.7113)" width="3.8" height="3.8"/>
<rect x="53.8" y="138.4" transform="matrix(-1 -4.493840e-11 4.493840e-11 -1 111.5154 280.7113)" width="3.8" height="3.8"/>
<rect x="57.7" y="138.4" transform="matrix(-1 -4.493840e-11 4.493840e-11 -1 119.2062 280.7113)" width="3.8" height="3.8"/>
<rect x="61.5" y="138.4" transform="matrix(-1 -4.493840e-11 4.493840e-11 -1 126.8969 280.7113)" width="3.8" height="3.8"/>
<rect x="46.1" y="138.4" transform="matrix(-1 -4.493840e-11 4.493840e-11 -1 96.134 280.7113)" width="3.8" height="3.8"/>
<rect x="46.1" y="11.5" transform="matrix(-1 -4.470170e-11 4.470170e-11 -1 96.134 26.9175)" width="3.8" height="3.8"/>
<rect x="46.1" y="7.7" transform="matrix(-1 -4.470170e-11 4.470170e-11 -1 96.134 19.2268)" width="3.8" height="3.8"/>
<rect x="50" y="3.8" transform="matrix(-1 -4.493840e-11 4.493840e-11 -1 103.8247 11.5361)" width="3.8" height="3.8"/>
<rect x="53.8" y="0" transform="matrix(-1 -4.493840e-11 4.493840e-11 -1 111.5154 3.8454)" width="3.8" height="3.8"/>
<polygon class="st3" points="42.3,30.8 42.3,57.7 46.1,57.7 46.1,61.5 65.4,61.5 65.4,57.7 69.2,57.7 69.2,30.8 "/>
<rect x="46.1" y="65.4" class="st3" width="19.2" height="46.1"/>
<rect x="46.1" y="115.4" class="st3" width="19.2" height="23.1"/>
<polygon class="st3" points="65.4,296.1 61.5,296.1 61.5,326.9 57.7,326.9 57.7,349.9 53.8,349.9 53.8,326.9 50,326.9 50,296.1 
	46.1,296.1 46.1,144.2 65.4,144.2 "/>
<rect x="46.1" y="142.3" class="st3" width="19.2" height="46.1"/>
<rect x="46.1" y="334.5" class="st3" width="3.8" height="11.5"/>
<rect x="61.5" y="334.5" class="st3" width="3.8" height="11.5"/>
<polygon class="st3" points="73.1,323 73.1,311.5 69.2,311.5 69.2,299.9 65.4,299.9 65.4,326.9 61.5,326.9 61.5,330.7 65.4,330.7 
	65.4,334.5 69.2,334.5 69.2,346.1 65.4,346.1 65.4,349.9 69.2,349.9 71.1,349.9 73.1,349.9 73.1,346.1 76.9,346.1 76.9,330.7 
	76.9,326.9 76.9,323 "/>
<polygon class="st3" points="38.5,323 38.5,311.5 42.3,311.5 42.3,299.9 46.1,299.9 46.1,326.9 50,326.9 50,330.7 46.1,330.7 
	46.1,334.5 42.3,334.5 42.3,346.1 46.1,346.1 46.1,349.9 42.3,349.9 40.4,349.9 38.5,349.9 38.5,346.1 34.6,346.1 34.6,330.7 
	34.6,326.9 34.6,323 "/>
<polygon class="st3" points="50,11.5 50,7.7 53.8,7.7 53.8,3.8 57.7,3.8 57.7,7.7 61.5,7.7 61.5,11.5 "/>
<rect x="50" y="26.9" transform="matrix(-1 -4.493840e-11 4.493840e-11 -1 103.8247 57.6804)" width="3.8" height="3.8"/>
<rect x="53.8" y="26.9" transform="matrix(-1 -4.493840e-11 4.493840e-11 -1 111.5154 57.6804)" width="3.8" height="3.8"/>
<rect x="57.7" y="26.9" transform="matrix(-1 -4.493840e-11 4.493840e-11 -1 119.2062 57.6804)" width="3.8" height="3.8"/>
<rect x="61.5" y="26.9" transform="matrix(-1 -4.493840e-11 4.493840e-11 -1 126.8969 57.6804)" width="3.8" height="3.8"/>
<rect x="46.1" y="26.9" transform="matrix(-1 -4.470170e-11 4.470170e-11 -1 96.134 57.6804)" width="3.8" height="3.8"/>
<polyline class="st3" points="50,15.4 50,19.2 46.1,19.2 46.1,26.9 65.4,26.9 65.4,19.2 61.5,19.2 61.5,15.4 "/>
</svg>
