<svg id="eDBU1a7VR2X1" xmlns="http://www.w3.org/2000/svg" xmlns:xlink="http://www.w3.org/1999/xlink" viewBox="0 0 64 64" shape-rendering="geometricPrecision" text-rendering="geometricPrecision"><style><![CDATA[#eDBU1a7VR2X5_to {animation: eDBU1a7VR2X5_to__to 2000ms linear infinite normal forwards}@keyframes eDBU1a7VR2X5_to__to { 0% {transform: translate(5px,4.16012px);animation-timing-function: cubic-bezier(0.445,0.05,0.55,0.95)} 50% {transform: translate(10px,4.16012px);animation-timing-function: cubic-bezier(0.445,0.05,0.55,0.95)} 100% {transform: translate(5px,4.16012px)}} #eDBU1a7VR2X6_to {animation: eDBU1a7VR2X6_to__to 2000ms linear infinite normal forwards}@keyframes eDBU1a7VR2X6_to__to { 0% {transform: translate(3px,9.16012px);animation-timing-function: cubic-bezier(0.445,0.05,0.55,0.95)} 50% {transform: translate(3px,15px);animation-timing-function: cubic-bezier(0.445,0.05,0.55,0.95)} 100% {transform: translate(3px,9.16012px)}} #eDBU1a7VR2X7_to {animation: eDBU1a7VR2X7_to__to 2000ms linear infinite normal forwards}@keyframes eDBU1a7VR2X7_to__to { 0% {transform: translate(7px,51.16012px);animation-timing-function: cubic-bezier(0.445,0.05,0.55,0.95)} 50% {transform: translate(12px,49px);animation-timing-function: cubic-bezier(0.445,0.05,0.55,0.95)} 100% {transform: translate(7px,51.16012px)}} #eDBU1a7VR2X8_to {animation: eDBU1a7VR2X8_to__to 2000ms linear infinite normal forwards}@keyframes eDBU1a7VR2X8_to__to { 0% {transform: translate(2px,57.16012px);animation-timing-function: cubic-bezier(0.445,0.05,0.55,0.95)} 50% {transform: translate(5px,61px);animation-timing-function: cubic-bezier(0.445,0.05,0.55,0.95)} 100% {transform: translate(2px,57.16012px)}} #eDBU1a7VR2X9_to {animation: eDBU1a7VR2X9_to__to 2000ms linear infinite normal forwards}@keyframes eDBU1a7VR2X9_to__to { 0% {transform: translate(60px,54.16012px);animation-timing-function: cubic-bezier(0.445,0.05,0.55,0.95)} 50% {transform: translate(60px,59px);animation-timing-function: cubic-bezier(0.445,0.05,0.55,0.95)} 100% {transform: translate(60px,54.16012px)}} #eDBU1a7VR2X10_to {animation: eDBU1a7VR2X10_to__to 2000ms linear infinite normal forwards}@keyframes eDBU1a7VR2X10_to__to { 0% {transform: translate(61px,15.16012px);animation-timing-function: cubic-bezier(0.445,0.05,0.55,0.95)} 50% {transform: translate(61px,19.458789px);animation-timing-function: cubic-bezier(0.445,0.05,0.55,0.95)} 100% {transform: translate(61px,15.16012px)}} #eDBU1a7VR2X11_tr {animation: eDBU1a7VR2X11_tr__tr 2000ms linear infinite normal forwards}@keyframes eDBU1a7VR2X11_tr__tr { 0% {transform: translate(15px,59.11012px) rotate(0deg)} 70% {transform: translate(15px,59.11012px) rotate(0deg);animation-timing-function: cubic-bezier(0.47,0,0.82,1.03)} 90% {transform: translate(15px,59.11012px) rotate(719deg)} 100% {transform: translate(15px,59.11012px) rotate(0deg)}} #eDBU1a7VR2X12_tr {animation: eDBU1a7VR2X12_tr__tr 2000ms linear infinite normal forwards}@keyframes eDBU1a7VR2X12_tr__tr { 0% {transform: translate(59px,5.16012px) rotate(0deg)} 25% {transform: translate(59px,5.16012px) rotate(0deg);animation-timing-function: cubic-bezier(0.47,0,0.82,1.03)} 45% {transform: translate(59px,5.16012px) rotate(719deg)} 50% {transform: translate(59px,5.16012px) rotate(0deg)} 100% {transform: translate(59px,5.16012px) rotate(0deg)}}]]></style><g id="eDBU1a7VR2X2"><path id="eDBU1a7VR2X3" d="M54.9,55.06012C55.8,56.16012,56.1,57.66012,55.6,59.06012C55.4,59.76012,55.1,60.46012,54.9,61.06012C54,63.36012,51.5,64.66012,49.1,63.86012C40.4,61.06012,31.2,57.86012,23.5,51.36012C21.9,49.96012,20.4,48.36012,19,46.76012C18.3,45.96012,17.5,45.06012,16.7,44.26012C15.8,43.16012,14.6,42.36012,13.3,42.06012C12.8,42.06012,12.4,42.06012,11.9,42.16012C10.6,42.56012,9.3,42.16012,8.3,41.26012C6.2,39.06012,5.8,33.26012,5.7,27.46012C5.6,24.66012,5.9,21.86012,6.4,19.16012C6.9,17.16012,7.5,15.16012,8.3,13.36012C8.8,12.06012,9.3,10.66012,9.8,9.16012L9.8,9.06012C9.8,8.96012,9.9,8.96012,9.9,8.86012C10,8.86012,10,8.76012,10,8.76012C11.2,7.36012,12.7,6.16012,14.3,5.16012C14.4,5.16012,14.4,5.06012,14.5,5.06012C22,0.46012,34.5,-2.23988,45.7,3.16012C47.2,3.76012,48.5,4.66012,49.8,5.66012C49.9,5.76012,50,5.86012,50.1,5.96012C50.4,6.46012,50.2,7.06012,49.7,7.26012C49.5,7.36012,49.3,7.46012,49.1,7.56012C55.5,12.96012,58.8,21.86012,59.2,28.66012C59.7,36.96012,58.3,45.66012,54.9,55.06012ZM47.2,8.56012C39.5,12.86012,32.2,17.86012,25.4,23.56012C24.5,24.36012,24.2,25.56012,24.7,26.66012C25,27.56012,25.5,28.36012,25.9,29.26012L27.3,29.46012C26.1,26.66012,27,23.56012,29.3,21.76012C34.8,17.66012,40.5,13.86012,46.4,10.36012C46.8,10.06012,47.4,10.16012,47.7,10.66012C48,11.16012,47.9,11.76012,47.4,12.06012C41.5,15.46012,35.9,19.26012,30.5,23.36012C28.7,24.76012,28.2,27.36012,29.4,29.36012C34.3,37.56012,43,45.56012,52.2,50.36012C52.7,50.66012,52.9,51.26012,52.6,51.76012C52.3,52.26012,51.7,52.46012,51.2,52.16012C49.8,51.46012,48.5,50.66012,47.1,49.76012L47.3,51.16012C49.2,52.16012,51.3,53.16012,53.4,53.96012C56.4,44.86012,57.6,36.66012,57.2,28.76012C56.9,22.36012,53.5,13.46012,47.2,8.56012ZM12,9.66012C14.3,16.66012,17.5,23.46012,21.5,29.66012C28,39.86012,39,52.96012,53.9,58.26012C54.1,57.26012,53.6,56.36012,52.7,55.96012C50.3,54.96012,48,53.86012,45.8,52.66012C45.5,52.46012,45.3,52.16012,45.3,51.86012L44.9,48.56012C38.1,44.26012,32.4,38.46012,28.2,31.56012L25,31.16012C24.6,31.16012,24.4,30.96012,24.2,30.66012C23.7,29.56012,23.2,28.56012,22.7,27.46012C21.9,25.56012,22.4,23.36012,24,22.06012C31.2,15.96012,39,10.66012,47.3,6.26012C46.5,5.76012,45.7,5.26012,44.9,4.86012C34.4,-0.03988,23,2.56012,16.1,6.46012C17.2,9.86012,18.6,13.16012,20.3,16.26012C20.5,16.66012,20.9,16.86012,21.3,16.96012C21.8,17.06012,22.3,16.96012,22.6,16.66012C24.9,14.76012,27.5,12.86012,30.6,10.76012C30.9,10.56012,31.2,10.06012,31.2,9.66012C31.3,9.16012,31.1,8.76012,30.7,8.46012C29.3,7.26012,27.6,6.36012,25.8,5.76012C25.3,5.56012,25,4.96012,25.2,4.46012C25.4,3.96012,26,3.66012,26.5,3.86012C28.5,4.56012,30.3,5.66012,32,6.96012C32.9,7.66012,33.4,8.66012,33.3,9.76012C33.3,10.86012,32.7,11.86012,31.8,12.46012C28.8,14.46012,26.2,16.36012,24,18.16012C23.2,18.76012,22.1,19.06012,21.1,18.86012C20.1,18.66012,19.2,18.06012,18.7,17.16012C17,14.06012,15.6,10.86012,14.5,7.46012C13.6,8.16012,12.7,8.86012,12,9.66012ZM53,60.66012C53.1,60.56012,53.2,60.36012,53.2,60.26012C37.7,54.86012,26.5,41.46012,19.7,30.96012C16,25.26012,13,19.06012,10.7,12.66012C10.5,13.16012,10.3,13.66012,10.1,14.16012C9.4,15.96012,8.8,17.86012,8.3,19.76012C7.8,22.36012,7.6,24.96012,7.6,27.66012C7.7,30.56012,7.8,38.06012,9.7,40.06012C10.2,40.46012,10.7,40.46012,11.7,40.36012C12.2,40.26012,12.6,40.26012,13,40.26012C13.1,40.26012,13.3,40.26012,13.5,40.26012C15.4,40.36012,16.9,41.66012,18.2,42.96012C19,43.76012,19.8,44.66012,20.6,45.56012C21.9,47.16012,23.4,48.56012,24.9,49.96012C32.3,56.16012,41.3,59.36012,49.8,62.06012C51.2,62.46012,52.6,61.76012,53,60.66012Z" fill="rgb(255,255,255)" stroke="none" stroke-width="1"/></g><g id="eDBU1a7VR2X4"><g id="eDBU1a7VR2X5_to" transform="translate(5,4.16012)"><ellipse id="eDBU1a7VR2X5" rx="1" ry="1" transform="translate(0,0)" fill="rgb(255,255,255)" stroke="none" stroke-width="0"/></g><g id="eDBU1a7VR2X6_to" transform="translate(3,9.16012)"><ellipse id="eDBU1a7VR2X6" rx="1" ry="1" transform="translate(0,0)" fill="rgb(255,255,255)" stroke="none" stroke-width="0"/></g><g id="eDBU1a7VR2X7_to" transform="translate(7,51.16012)"><ellipse id="eDBU1a7VR2X7" rx="1" ry="1" transform="translate(0,0)" fill="rgb(255,255,255)" stroke="none" stroke-width="0"/></g><g id="eDBU1a7VR2X8_to" transform="translate(2,57.16012)"><ellipse id="eDBU1a7VR2X8" rx="1" ry="1" transform="translate(0,0)" fill="rgb(255,255,255)" stroke="none" stroke-width="0"/></g><g id="eDBU1a7VR2X9_to" transform="translate(60,54.16012)"><ellipse id="eDBU1a7VR2X9" rx="1" ry="1" transform="translate(0,0)" fill="rgb(255,255,255)" stroke="none" stroke-width="0"/></g><g id="eDBU1a7VR2X10_to" transform="translate(61,15.16012)"><ellipse id="eDBU1a7VR2X10" rx="1" ry="1" transform="translate(0,0)" fill="rgb(255,255,255)" stroke="none" stroke-width="0"/></g><g id="eDBU1a7VR2X11_tr" transform="translate(15,59.11012) rotate(0)"><path id="eDBU1a7VR2X11" d="M14,62.16012L14,60.06012L11.95,60.06012C11.42533,60.06012,11,59.63479,11,59.11012C11,58.58545,11.42533,58.16012,11.95,58.16012L14,58.16012L14,56.06012C14,55.50784,14.44772,55.06012,15,55.06012C15.55228,55.06012,16,55.50784,16,56.06012L16,58.16012L18.05,58.16012C18.57467,58.16012,19,58.58545,19,59.11012C19,59.63479,18.57467,60.06012,18.05,60.06012L16,60.06012L16,62.16012C16,62.7124,15.55228,63.16012,15,63.16012C14.44772,63.16012,14,62.7124,14,62.16012Z" transform="translate(-15,-59.11012)" fill="rgb(255,255,255)" stroke="none" stroke-width="0"/></g><g id="eDBU1a7VR2X12_tr" transform="translate(59,5.16012) rotate(0)"><path id="eDBU1a7VR2X12" d="M14,62.16012L14,60.06012L11.95,60.06012C11.42533,60.06012,11,59.63479,11,59.11012C11,58.58545,11.42533,58.16012,11.95,58.16012L14,58.16012L14,56.06012C14,55.50784,14.44772,55.06012,15,55.06012C15.55228,55.06012,16,55.50784,16,56.06012L16,58.16012L18.05,58.16012C18.57467,58.16012,19,58.58545,19,59.11012C19,59.63479,18.57467,60.06012,18.05,60.06012L16,60.06012L16,62.16012C16,62.7124,15.55228,63.16012,15,63.16012C14.44772,63.16012,14,62.7124,14,62.16012Z" transform="translate(-15,-59.11012)" fill="rgb(255,255,255)" stroke="none" stroke-width="0"/></g></g></svg>