<svg enable-background="new 0 0 64 64" viewBox="0 0 64 64" xmlns="http://www.w3.org/2000/svg"><path d="m59.2 28.5c-.4-6.8-3.7-15.7-10.1-21.1.2-.1.4-.2.6-.3.5-.2.7-.8.4-1.3-.1-.1-.2-.2-.3-.3-1.3-1-2.6-1.9-4.1-2.5-11.2-5.4-23.7-2.7-31.2 1.9-.1 0-.1.1-.2.1-1.6 1-3.1 2.2-4.3 3.6 0 0 0 .1-.1.1 0 .1-.1.1-.1.2v.1c-.5 1.5-1 2.9-1.5 4.2-.8 1.8-1.4 3.8-1.9 5.8-.5 2.7-.8 5.5-.7 8.3.1 5.8.5 11.6 2.6 13.8 1 .9 2.3 1.3 3.6.9.5-.1.9-.1 1.4-.1 1.3.3 2.5 1.1 3.4 2.2.8.8 1.6 1.7 2.3 2.5 1.4 1.6 2.9 3.2 4.5 4.6 7.7 6.5 16.9 9.7 25.6 12.5 2.4.8 4.9-.5 5.8-2.8.2-.6.5-1.3.7-2 .5-1.4.2-2.9-.7-4 3.4-9.4 4.8-18.1 4.3-26.4zm-2 .1c.4 7.9-.8 16.1-3.8 25.2-2.1-.8-4.2-1.8-6.1-2.8l-.2-1.4c1.4.9 2.7 1.7 4.1 2.4.5.3 1.1.1 1.4-.4s.1-1.1-.4-1.4c-9.2-4.8-17.9-12.8-22.8-21-1.2-2-.7-4.6 1.1-6 5.4-4.1 11-7.9 16.9-11.3.5-.3.6-.9.3-1.4s-.9-.6-1.3-.3c-5.9 3.5-11.6 7.3-17.1 11.4-2.3 1.8-3.2 4.9-2 7.7l-1.4-.2c-.4-.9-.9-1.7-1.2-2.6-.5-1.1-.2-2.3.7-3.1 6.8-5.7 14.1-10.7 21.8-15 6.3 4.9 9.7 13.8 10 20.2zm-42.7-21.3c1.1 3.4 2.5 6.6 4.2 9.7.5.9 1.4 1.5 2.4 1.7s2.1-.1 2.9-.7c2.2-1.8 4.8-3.7 7.8-5.7.9-.6 1.5-1.6 1.5-2.7.1-1.1-.4-2.1-1.3-2.8-1.7-1.3-3.5-2.4-5.5-3.1-.5-.2-1.1.1-1.3.6s.1 1.1.6 1.3c1.8.6 3.5 1.5 4.9 2.7.4.3.6.7.5 1.2 0 .4-.3.9-.6 1.1-3.1 2.1-5.7 4-8 5.9-.3.3-.8.4-1.3.3-.4-.1-.8-.3-1-.7-1.7-3.1-3.1-6.4-4.2-9.8 6.9-3.9 18.3-6.5 28.8-1.6.8.4 1.6.9 2.4 1.4-8.3 4.4-16.1 9.7-23.3 15.8-1.6 1.3-2.1 3.5-1.3 5.4.5 1.1 1 2.1 1.5 3.2.2.3.4.5.8.5l3.2.4c4.2 6.9 9.9 12.7 16.7 17l.4 3.3c0 .3.2.6.5.8 2.2 1.2 4.5 2.3 6.9 3.3.9.4 1.4 1.3 1.2 2.3-14.9-5.3-25.9-18.4-32.4-28.6-4-6.2-7.2-13-9.5-20 .7-.8 1.6-1.5 2.5-2.2zm35.3 54.6c-8.5-2.7-17.5-5.9-24.9-12.1-1.5-1.4-3-2.8-4.3-4.4-.8-.9-1.6-1.8-2.4-2.6-1.3-1.3-2.8-2.6-4.7-2.7-.2 0-.4 0-.5 0-.4 0-.8 0-1.3.1-1 .1-1.5.1-2-.3-1.9-2-2-9.5-2.1-12.4 0-2.7.2-5.3.7-7.9.5-1.9 1.1-3.8 1.8-5.6.2-.5.4-1 .6-1.5 2.3 6.4 5.3 12.6 9 18.3 6.8 10.5 18 23.9 33.5 29.3 0 .1-.1.3-.2.4-.4 1.1-1.8 1.8-3.2 1.4zm13.2-56.9c0 .6-.4 1-1 1h-2v2c0 .6-.4 1-1 1s-1-.4-1-1v-2h-2c-.6 0-1-.4-1-1s.4-1 1-1h2v-2c0-.6.4-1 1-1s1 .4 1 1v2h2c.6 0 1 .4 1 1zm-44 54c0 .6-.4 1-1 1h-2v2c0 .6-.4 1-1 1s-1-.4-1-1v-2h-2c-.6 0-1-.4-1-1s.4-1 1-1h2v-2c0-.6.4-1 1-1s1 .4 1 1v2h2c.6 0 1 .4 1 1zm-11-8c0 .6-.4 1-1 1s-1-.4-1-1 .4-1 1-1 1 .4 1 1zm-5 6c0 .6-.4 1-1 1s-1-.4-1-1 .4-1 1-1 1 .4 1 1zm59-42c0 .6-.4 1-1 1s-1-.4-1-1 .4-1 1-1 1 .4 1 1zm-58-6c0 .6-.4 1-1 1s-1-.4-1-1 .4-1 1-1 1 .4 1 1zm57 45c0 .6-.4 1-1 1s-1-.4-1-1 .4-1 1-1 1 .4 1 1zm-56-49c-.6 0-1-.4-1-1s.4-1 1-1 1 .4 1 1-.4 1-1 1z" fill="#fff"/></svg>